{"glyphs":{"0":{"ha":614,"x_min":0,"x_max":545,"o":"m 81 968 l 467 968 q 494 941 470 968 q 412 860 494 938 l 136 860 q 54 941 132 860 q 81 968 54 945 m 518 941 q 545 914 522 941 l 545 529 q 518 502 545 526 q 437 583 515 502 l 437 860 q 518 941 437 863 m 27 939 q 109 857 31 939 l 109 581 q 27 499 109 577 q 0 526 24 499 l 0 911 q 27 939 0 915 m 347 727 q 393 621 355 717 q 277 331 282 336 q 168 288 182 288 q 157 328 157 317 q 315 713 309 709 q 347 727 342 727 m 27 472 q 109 391 31 472 l 109 114 q 27 33 109 111 q 0 60 24 33 l 0 445 q 27 472 0 448 m 518 469 q 545 442 522 469 l 545 57 q 518 30 545 54 q 437 111 515 30 l 437 388 q 518 469 437 391 m 133 109 l 410 109 q 491 27 413 109 q 464 0 491 24 l 79 0 q 52 27 75 0 q 133 109 52 31 z "},"1":{"ha":412,"x_min":0,"x_max":342,"o":"m 260 968 q 342 887 264 968 l 342 578 q 260 496 342 574 q 233 524 257 496 l 233 941 q 260 968 233 945 m 163 871 l 195 871 q 201 865 201 870 l 201 757 q 117 673 201 754 q 35 675 62 675 l 5 675 q 0 681 0 675 q 22 735 3 735 q 163 871 157 871 m 315 472 q 342 445 318 472 l 342 27 q 315 0 342 24 q 233 81 311 0 l 233 391 q 315 472 233 394 z "},"2":{"ha":614,"x_min":0,"x_max":545,"o":"m 79 968 l 464 968 q 491 941 467 968 q 410 860 491 938 l 133 860 q 52 941 130 860 q 79 968 52 945 m 518 939 q 545 911 522 939 l 545 526 q 518 499 545 523 q 437 581 515 499 l 437 857 q 518 939 437 861 m 109 537 l 429 537 q 483 483 432 537 l 483 480 q 429 426 483 477 l 109 426 q 54 480 105 426 l 54 483 q 109 537 54 486 m 27 469 q 109 388 31 469 l 109 111 q 27 30 109 108 q 0 57 24 30 l 0 442 q 27 469 0 446 m 136 109 l 412 109 q 494 27 416 109 q 467 0 494 24 l 81 0 q 54 27 78 0 q 136 109 54 31 z "},"3":{"ha":614,"x_min":0,"x_max":494,"o":"m 27 968 l 412 968 q 439 941 416 968 q 358 860 439 938 l 81 860 q 0 941 78 860 q 27 968 0 945 m 467 939 q 494 911 470 939 l 494 526 q 467 499 494 523 q 385 581 463 499 l 385 857 q 467 939 385 861 m 65 543 l 385 543 q 439 488 389 543 l 439 486 q 385 431 439 482 l 65 431 q 11 486 62 431 l 11 488 q 65 543 11 492 m 467 472 q 494 445 470 472 l 494 60 q 467 33 494 56 q 385 114 463 33 l 385 391 q 467 472 385 394 m 84 109 l 361 109 q 442 27 364 109 q 415 0 442 24 l 30 0 q 3 27 26 0 q 84 109 3 31 z "},"4":{"ha":614,"x_min":0,"x_max":545,"o":"m 27 968 q 109 887 31 968 l 109 578 q 27 496 109 574 q 0 524 24 496 l 0 941 q 27 968 0 945 m 518 968 q 545 941 522 968 l 545 524 q 518 496 545 520 q 437 578 515 496 l 437 887 q 518 968 437 890 m 117 537 l 437 537 q 491 483 440 537 l 491 480 q 437 426 491 477 l 117 426 q 62 480 113 426 l 62 483 q 117 537 62 486 m 518 439 q 545 412 522 439 l 545 27 q 518 0 545 24 q 437 81 515 0 l 437 358 q 518 439 437 361 z "},"5":{"ha":614,"x_min":0,"x_max":545,"o":"m 81 968 l 467 968 q 494 941 470 968 q 412 860 494 938 l 136 860 q 54 941 132 860 q 81 968 54 945 m 27 939 q 109 857 31 939 l 109 581 q 27 499 109 577 q 0 526 24 499 l 0 911 q 27 939 0 915 m 109 543 l 429 543 q 483 488 432 543 l 483 486 q 429 431 483 482 l 109 431 q 54 486 105 431 l 54 488 q 109 543 54 492 m 518 469 q 545 442 522 469 l 545 57 q 518 30 545 54 q 437 111 515 30 l 437 388 q 518 469 437 391 m 133 109 l 410 109 q 491 27 413 109 q 464 0 491 24 l 79 0 q 52 27 75 0 q 133 109 52 31 z "},"6":{"ha":614,"x_min":0,"x_max":545,"o":"m 81 968 l 467 968 q 494 941 470 968 q 412 860 494 938 l 136 860 q 54 941 132 860 q 81 968 54 945 m 27 939 q 109 857 31 939 l 109 581 q 27 499 109 577 q 0 526 24 499 l 0 911 q 27 939 0 915 m 109 543 l 429 543 q 483 488 432 543 l 483 486 q 429 431 483 482 l 109 431 q 54 486 105 431 l 54 488 q 109 543 54 492 m 27 472 q 109 391 31 472 l 109 114 q 27 33 109 111 q 0 60 24 33 l 0 445 q 27 472 0 448 m 518 469 q 545 442 522 469 l 545 57 q 518 30 545 54 q 437 111 515 30 l 437 388 q 518 469 437 391 m 133 109 l 410 109 q 491 27 413 109 q 464 0 491 24 l 79 0 q 52 27 75 0 q 133 109 52 31 z "},"7":{"ha":614,"x_min":0,"x_max":491,"o":"m 27 968 l 412 968 q 439 941 416 968 q 358 860 439 938 l 81 860 q 0 941 78 860 q 27 968 0 945 m 464 941 q 491 914 467 941 l 491 529 q 464 502 491 526 q 382 583 460 502 l 382 860 q 464 941 382 863 m 464 472 q 491 445 467 472 l 491 27 q 464 0 491 24 q 382 81 460 0 l 382 391 q 464 472 382 394 z "},"8":{"ha":614,"x_min":0,"x_max":545,"o":"m 81 968 l 467 968 q 494 941 470 968 q 412 860 494 938 l 136 860 q 54 941 132 860 q 81 968 54 945 m 518 941 q 545 914 522 941 l 545 529 q 518 502 545 526 q 437 583 515 502 l 437 860 q 518 941 437 863 m 27 939 q 109 857 31 939 l 109 581 q 27 499 109 577 q 0 526 24 499 l 0 911 q 27 939 0 915 m 109 543 l 429 543 q 483 488 432 543 l 483 486 q 429 431 483 482 l 109 431 q 54 486 105 431 l 54 488 q 109 543 54 492 m 27 472 q 109 391 31 472 l 109 114 q 27 33 109 111 q 0 60 24 33 l 0 445 q 27 472 0 448 m 518 469 q 545 442 522 469 l 545 57 q 518 30 545 54 q 437 111 515 30 l 437 388 q 518 469 437 391 m 133 109 l 410 109 q 491 27 413 109 q 464 0 491 24 l 79 0 q 52 27 75 0 q 133 109 52 31 z "},"9":{"ha":614,"x_min":0,"x_max":545,"o":"m 81 968 l 467 968 q 494 941 470 968 q 412 860 494 938 l 136 860 q 54 941 132 860 q 81 968 54 945 m 27 939 q 109 857 31 939 l 109 581 q 27 499 109 577 q 0 526 24 499 l 0 911 q 27 939 0 915 m 518 936 q 545 909 522 936 l 545 524 q 518 496 545 520 q 437 578 515 496 l 437 854 q 518 936 437 858 m 117 537 l 437 537 q 491 483 440 537 l 491 480 q 437 426 491 477 l 117 426 q 62 480 113 426 l 62 483 q 117 537 62 486 m 518 469 q 545 442 522 469 l 545 57 q 518 30 545 54 q 437 111 515 30 l 437 388 q 518 469 437 391 m 133 109 l 410 109 q 491 27 413 109 q 464 0 491 24 l 79 0 q 52 27 75 0 q 133 109 52 31 z "}," ":{"ha":614,"x_min":0,"x_max":0,"o":""},"!":{"ha":211,"x_min":0,"x_max":146,"o":"m 46 966 q 127 884 50 966 l 127 665 q 46 583 127 661 q 19 610 43 583 l 19 939 q 46 966 19 942 m 100 602 q 127 575 104 602 l 127 250 q 100 222 127 246 q 19 304 97 222 l 19 521 q 100 602 19 524 m 43 163 l 100 163 q 106 157 106 162 l 106 155 q 62 117 76 117 l 57 117 q 24 141 43 117 l 24 144 q 43 163 24 148 m 119 136 l 122 136 q 146 111 125 136 l 146 54 q 138 46 146 50 l 136 46 q 100 79 100 75 l 100 103 q 119 136 100 125 m 11 119 q 46 84 15 119 l 46 49 q 30 27 30 33 l 24 27 q 0 52 21 27 l 0 109 q 11 119 0 113 m 76 46 l 90 46 q 125 22 106 46 q 103 0 125 18 l 46 0 q 41 5 41 0 l 41 8 q 76 46 41 15 z "},"\"":{"ha":275,"x_min":0,"x_max":191,"o":"m 14 1434 q 54 1394 17 1434 l 54 1250 q 14 1209 54 1246 q 0 1223 10 1209 l 0 1421 q 14 1434 0 1424 m 150 1434 q 191 1394 153 1434 l 191 1250 q 150 1209 191 1246 q 136 1223 146 1209 l 136 1421 q 150 1434 136 1424 z "},"#":{"ha":1427,"x_min":0,"x_max":1343,"o":"m 724 968 q 735 930 735 944 q 578 646 596 667 q 475 613 573 646 q 464 654 464 633 q 618 936 604 917 q 724 968 718 968 m 1177 968 q 1188 930 1188 944 q 1031 646 1049 667 q 928 613 1026 646 q 917 654 917 633 q 1072 936 1057 917 q 1177 968 1171 968 m 176 686 l 399 686 q 426 659 402 686 q 345 578 426 656 l 231 578 q 149 659 227 578 q 176 686 149 663 m 648 675 l 871 675 q 898 648 874 675 q 817 567 898 645 l 703 567 q 621 648 699 567 q 648 675 621 652 m 1093 675 l 1316 675 q 1343 648 1319 675 q 1261 567 1343 645 l 1147 567 q 1066 648 1144 567 q 1093 675 1066 652 m 559 629 q 570 589 570 609 q 415 307 429 326 q 309 274 315 274 q 298 312 298 298 q 456 597 437 575 q 559 629 460 597 m 1012 629 q 1023 589 1023 609 q 868 307 882 326 q 762 274 768 274 q 751 312 751 298 q 909 597 890 575 q 1012 629 913 597 m 81 393 l 195 393 q 277 312 199 393 q 250 285 277 309 l 27 285 q 0 312 24 285 q 81 393 0 315 m 545 393 l 659 393 q 741 312 663 393 q 713 285 741 309 l 491 285 q 464 312 488 285 q 545 393 464 315 m 998 393 l 1112 393 q 1194 312 1116 393 q 1166 285 1194 309 l 944 285 q 917 312 941 285 q 998 393 917 315 m 393 285 q 404 247 399 276 q 263 8 281 29 q 231 0 238 0 q 198 109 226 6 q 290 258 275 254 q 393 285 389 285 m 846 285 q 857 247 852 276 q 716 8 734 29 q 684 0 691 0 q 651 109 679 6 q 743 258 728 254 q 846 285 842 285 z "},"$":{"ha":615,"x_min":0,"x_max":545,"o":"m 217 1162 q 298 1081 220 1162 l 298 1010 q 293 1005 298 1005 l 195 1005 q 190 1010 190 1005 l 190 1135 q 217 1162 190 1139 m 81 967 l 467 967 q 494 940 470 967 q 412 859 494 937 l 136 859 q 54 940 132 859 q 81 967 54 943 m 27 937 q 109 856 31 937 l 109 579 q 27 498 109 576 q 0 525 24 498 l 0 910 q 27 937 0 913 m 201 837 l 288 837 q 293 831 293 836 l 293 582 q 288 576 293 576 l 201 576 q 195 582 195 576 l 195 831 q 201 837 196 837 m 109 541 l 429 541 q 483 487 432 541 l 483 484 q 429 430 483 481 l 109 430 q 54 484 105 430 l 54 487 q 109 541 54 490 m 518 468 q 545 441 522 468 l 545 56 q 518 28 545 52 q 437 110 515 28 l 437 387 q 518 468 437 390 m 201 400 l 288 400 q 293 395 293 399 l 293 145 q 288 140 293 140 l 201 140 q 195 145 195 140 l 195 395 q 201 400 196 400 m 133 107 l 410 107 q 491 26 413 107 q 464 -1 491 22 l 79 -1 q 52 26 75 -1 q 133 107 52 29 m 195 -26 l 293 -26 q 298 -31 298 -26 l 298 -156 q 271 -183 298 -159 q 190 -102 268 -183 l 190 -31 q 195 -26 191 -26 z "},"%":{"ha":615,"x_min":0,"x_max":545,"o":"m 60 968 l 133 968 q 146 955 136 968 l 146 952 q 103 909 146 949 l 30 909 q 16 922 26 909 l 16 925 q 60 968 16 928 m 534 968 q 545 930 545 944 q 388 646 406 667 q 285 613 383 646 q 274 654 274 633 q 429 936 414 917 q 534 968 528 968 m 149 941 l 152 941 q 195 898 155 941 l 195 825 q 182 811 195 821 l 179 811 q 136 854 176 811 l 136 928 q 149 941 136 931 m 14 909 l 16 909 q 60 865 20 909 l 60 792 q 46 779 60 789 l 43 779 q 0 822 40 779 l 0 895 q 14 909 0 899 m 92 811 l 165 811 q 179 798 169 811 l 179 795 q 136 751 179 791 l 62 751 q 49 765 59 751 l 49 768 q 92 811 49 771 m 369 629 q 380 589 380 609 q 225 307 239 326 q 119 274 125 274 q 109 312 109 298 q 266 597 248 575 q 369 629 271 597 m 203 285 q 214 247 210 276 q 73 8 92 29 q 41 0 48 0 q 8 109 36 6 q 100 258 85 254 q 203 285 199 285 m 410 217 l 483 217 q 496 203 486 217 l 496 201 q 453 157 496 197 l 380 157 q 366 171 376 157 l 366 174 q 410 217 366 177 m 499 190 l 502 190 q 545 146 505 190 l 545 73 q 532 60 545 70 l 529 60 q 486 103 526 60 l 486 176 q 499 190 486 180 m 363 157 l 366 157 q 410 114 370 157 l 410 41 q 396 27 410 37 l 393 27 q 350 71 390 27 l 350 144 q 363 157 350 147 m 442 60 l 515 60 q 529 46 519 60 l 529 43 q 486 0 529 40 l 412 0 q 399 14 409 0 l 399 16 q 442 60 399 20 z "},"&":{"ha":859,"x_min":0,"x_max":789,"o":"m 136 974 l 358 974 q 385 947 361 974 q 304 865 385 943 l 190 865 q 109 947 186 865 q 136 974 109 950 m 412 925 q 439 898 416 925 l 439 675 q 412 648 439 672 q 331 730 409 648 l 331 844 q 412 925 331 847 m 106 909 q 187 827 109 909 l 187 713 q 106 632 187 710 q 79 659 102 632 l 79 882 q 106 909 79 885 m 209 692 l 323 692 q 404 610 326 692 q 377 583 404 607 l 155 583 q 127 610 151 583 q 209 692 127 614 m 57 556 l 442 556 q 469 529 446 556 q 388 448 469 526 l 111 448 q 30 529 108 448 q 57 556 30 532 m 486 507 q 513 480 489 507 l 513 363 l 540 388 l 762 388 q 789 361 766 388 q 708 279 789 357 l 594 279 l 513 358 l 513 138 l 594 217 l 708 217 q 789 136 711 217 q 762 109 789 132 l 540 109 l 513 133 l 513 95 q 486 68 513 92 q 404 149 482 68 l 404 426 q 486 507 404 429 m 27 499 q 109 418 31 499 l 109 141 q 27 60 109 138 q 0 87 24 60 l 0 472 q 27 499 0 475 m 111 109 l 388 109 q 469 27 391 109 q 442 0 469 24 l 57 0 q 30 27 54 0 q 111 109 30 31 z "},"'":{"ha":139,"x_min":0,"x_max":54,"o":"m 14 1434 q 54 1394 17 1434 l 54 1250 q 14 1209 54 1246 q 0 1223 10 1209 l 0 1421 q 14 1434 0 1424 z "},"(":{"ha":406,"x_min":0,"x_max":312,"o":"m 258 958 q 312 903 312 907 q 255 846 258 846 l 119 846 q 62 903 62 900 q 117 958 113 958 l 258 958 m 27 884 q 111 795 111 810 l 111 529 q 27 445 31 445 q 0 472 0 469 l 0 857 q 27 884 24 884 m 27 410 q 109 347 94 362 l 109 136 q 27 73 94 121 q 0 95 9 83 l 0 388 q 27 410 9 400 m 255 111 q 312 54 312 58 q 258 0 261 0 l 117 0 q 62 54 62 51 q 119 111 116 111 l 255 111 z "},")":{"ha":410,"x_min":0,"x_max":312,"o":"m 54 958 l 195 958 q 250 903 199 958 q 193 846 250 900 l 57 846 q 0 903 54 846 q 54 958 0 907 m 285 884 q 312 857 288 884 l 312 472 q 285 445 312 469 q 201 529 281 445 l 201 795 q 285 884 201 810 m 285 410 q 312 388 303 400 l 312 95 q 285 73 303 83 q 203 136 218 121 l 203 347 q 285 410 218 362 m 57 111 l 193 111 q 250 54 196 111 q 195 0 250 51 l 54 0 q 0 54 51 0 q 57 111 0 58 z "},"*":{"ha":503,"x_min":3,"x_max":462,"o":"m 212 865 q 275 802 214 865 l 275 696 q 271 692 275 692 l 205 692 q 201 696 201 692 l 201 854 q 212 865 201 857 m 353 812 l 378 812 q 382 808 382 812 l 382 724 q 344 692 356 692 l 300 692 q 296 696 296 692 l 296 755 q 353 812 296 758 m 58 783 l 142 783 q 180 745 145 783 l 180 696 q 176 692 180 692 l 121 692 q 54 753 109 692 l 54 779 q 58 783 54 783 m 60 671 l 176 671 q 180 667 180 671 l 180 602 q 176 597 180 597 l 24 597 q 3 612 13 597 l 3 614 q 60 671 4 618 m 205 671 l 271 671 q 275 667 275 671 l 275 602 q 271 597 275 597 l 205 597 q 201 602 201 597 l 201 667 q 205 671 201 671 m 300 671 l 447 671 q 462 656 450 671 l 462 654 q 399 597 411 597 l 300 597 q 296 602 296 597 l 296 667 q 300 671 296 671 m 117 576 l 176 576 q 180 572 180 576 l 180 522 q 113 454 180 519 l 87 454 q 83 459 83 454 l 83 543 q 117 576 83 546 m 205 576 l 271 576 q 275 572 275 576 l 275 425 q 254 404 275 422 q 201 457 251 404 l 201 572 q 205 576 201 576 m 300 576 l 349 576 q 412 513 351 576 l 412 488 q 407 484 412 484 l 323 484 q 296 511 320 484 l 296 572 q 300 576 296 576 z "},"+":{"ha":547,"x_min":0,"x_max":472,"o":"m 217 790 q 298 709 220 790 l 298 551 q 293 546 298 546 l 195 546 q 190 551 190 546 l 190 763 q 217 790 190 766 m 27 519 l 445 519 q 472 492 448 519 q 391 410 472 488 l 81 410 q 0 492 78 410 q 27 519 0 495 m 195 383 l 293 383 q 298 378 298 382 l 298 166 q 271 139 298 163 q 190 220 268 139 l 190 378 q 195 383 191 383 z "},",":{"ha":208,"x_min":11,"x_max":146,"o":"m 146 68 l 146 62 q 34 -135 146 58 l 28 -135 q 11 62 24 -135 l 11 68 q 76 133 11 72 l 81 133 q 146 68 85 133 z "},"-":{"ha":454,"x_min":6,"x_max":435,"o":"m 60 661 l 380 661 q 435 606 384 661 l 435 604 q 380 549 435 600 l 60 549 q 6 604 57 549 l 6 606 q 60 661 6 610 z "},".":{"ha":200,"x_min":4,"x_max":140,"o":"m 4 62 l 4 68 q 69 133 4 72 l 75 133 q 140 68 79 133 l 140 62 q 75 -3 140 58 l 69 -3 q 4 62 65 -3 z "},"/":{"ha":612,"x_min":0,"x_max":534,"o":"m 526 968 q 534 933 534 956 l 534 930 q 382 646 534 920 q 277 613 374 646 q 266 654 266 633 q 420 936 406 917 q 526 968 520 968 m 361 629 q 372 589 372 609 q 217 307 231 326 q 111 274 117 274 q 100 312 100 298 q 258 597 239 575 q 361 629 262 597 m 195 285 q 206 247 201 276 q 65 8 83 28 q 33 0 40 0 q 0 109 27 9 q 92 258 79 256 q 195 285 191 285 z "},":":{"ha":200,"x_min":4,"x_max":142,"o":"m 4 62 l 4 68 q 69 133 4 72 l 75 133 q 140 68 79 133 l 140 62 q 75 -3 140 58 l 69 -3 q 4 62 65 -3 m 7 741 l 7 746 q 72 811 7 750 l 77 811 q 142 746 81 811 l 142 741 q 77 675 142 736 l 72 675 q 7 741 68 675 z "},";":{"ha":378,"x_min":7,"x_max":146,"o":"m 146 68 l 146 62 q 34 -135 146 58 l 28 -135 q 11 62 24 -135 l 11 68 q 76 133 11 72 l 81 133 q 146 68 85 133 m 7 741 l 7 746 q 72 811 7 750 l 77 811 q 142 746 81 811 l 142 741 q 77 675 142 736 l 72 675 q 7 741 68 675 z "},"<":{"ha":471,"x_min":7,"x_max":385,"o":"m 7 522 q 13 551 13 541 q 347 758 26 566 q 385 747 365 758 q 360 638 379 715 q 119 492 357 633 q 7 522 17 516 m 7 410 q 121 440 7 416 l 355 299 q 385 191 361 299 q 352 177 385 177 l 349 177 q 54 353 338 177 q 7 410 7 371 z "},"=":{"ha":479,"x_min":6,"x_max":435,"o":"m 60 661 l 380 661 q 435 606 384 661 l 435 604 q 380 549 435 600 l 60 549 q 6 604 57 549 l 6 606 q 60 661 6 610 m 60 411 l 380 411 q 435 357 384 411 l 435 354 q 383 302 435 351 l 58 302 q 6 354 54 302 l 6 357 q 60 411 6 360 z "},">":{"ha":473,"x_min":7,"x_max":385,"o":"m 385 522 q 273 492 375 516 q 32 638 35 633 q 7 747 13 715 q 45 758 27 758 q 379 551 366 566 q 385 522 379 541 m 385 410 q 338 353 385 371 q 43 177 54 177 l 40 177 q 7 191 7 177 q 37 299 31 299 l 271 440 q 385 410 385 416 z "},"?":{"ha":614,"x_min":0,"x_max":494,"o":"m 27 968 l 412 968 q 439 941 416 968 q 358 860 439 938 l 81 860 q 0 941 78 860 q 27 968 0 945 m 467 939 q 494 911 470 939 l 494 526 q 467 499 494 523 q 385 581 463 499 l 385 857 q 467 939 385 861 m 65 543 l 385 543 q 439 488 389 543 l 439 486 q 385 431 439 482 l 65 431 q 11 486 62 431 l 11 488 q 65 543 11 492 m 54 382 q 111 326 58 382 l 111 190 q 54 133 111 186 q 0 187 51 133 l 0 328 q 54 382 0 332 m 52 106 l 54 106 q 106 54 58 106 l 106 52 q 54 0 106 48 l 52 0 q 0 52 48 0 l 0 54 q 52 106 0 58 z "},"@":{"ha":612,"x_min":0,"x_max":545,"o":"m 81 968 l 467 968 q 494 941 470 968 q 412 860 494 938 l 136 860 q 54 941 132 860 q 81 968 54 945 m 518 941 q 545 914 522 941 l 545 529 q 518 502 545 526 q 437 583 515 502 l 437 860 q 518 941 437 863 m 27 939 q 109 857 31 939 l 109 581 q 27 499 109 577 q 0 526 24 499 l 0 911 q 27 939 0 915 m 201 686 l 328 686 q 345 670 332 686 q 296 624 297 624 l 231 624 q 184 670 227 624 q 201 686 184 674 m 358 665 l 361 665 q 374 651 364 665 l 374 521 q 361 507 374 517 l 358 507 q 312 553 355 507 l 312 618 q 358 665 312 622 m 201 507 l 328 507 q 345 491 332 507 q 296 445 319 463 l 231 445 q 184 491 227 445 q 201 507 184 495 m 358 480 q 374 464 362 480 l 374 336 q 361 323 374 333 l 358 323 q 312 369 355 323 l 312 434 q 358 480 312 437 m 27 472 q 109 391 31 472 l 109 114 q 27 33 109 111 q 0 60 24 33 l 0 445 q 27 472 0 448 m 182 469 l 184 469 q 231 423 188 469 l 231 358 q 184 312 231 355 q 168 328 180 312 l 168 456 q 182 469 168 459 m 518 469 q 545 442 522 469 l 545 57 q 518 30 545 54 q 437 111 515 30 l 437 388 q 518 469 437 391 m 241 347 l 307 347 q 355 301 308 347 q 339 285 355 297 l 212 285 q 195 301 208 285 q 241 347 195 304 m 133 109 l 410 109 q 491 27 413 109 q 464 0 491 24 l 79 0 q 52 27 75 0 q 133 109 52 31 z "},"A":{"ha":614,"x_min":0,"x_max":545,"o":"m 81 968 l 467 968 q 494 941 470 968 q 412 860 494 938 l 136 860 q 54 941 132 860 q 81 968 54 945 m 518 941 q 545 914 522 941 l 545 529 q 518 502 545 526 q 437 583 515 502 l 437 860 q 518 941 437 863 m 27 939 q 109 857 31 939 l 109 581 q 27 499 109 577 q 0 526 24 499 l 0 911 q 27 939 0 915 m 109 543 l 429 543 q 483 488 432 543 l 483 486 q 429 431 483 482 l 109 431 q 54 486 105 431 l 54 488 q 109 543 54 492 m 27 472 q 109 391 31 472 l 109 81 q 27 0 109 78 q 0 27 24 0 l 0 445 q 27 472 0 448 m 518 472 q 545 445 522 472 l 545 27 q 518 0 545 24 q 437 81 515 0 l 437 391 q 518 472 437 394 z "},"B":{"ha":614,"x_min":0,"x_max":545,"o":"m 27 968 l 467 968 q 494 941 470 968 q 412 860 494 938 l 136 860 q 27 966 37 952 l 27 968 m 0 963 l 3 963 q 109 857 6 963 l 109 581 q 27 499 109 577 q 0 526 24 499 l 0 963 m 518 941 q 545 914 522 941 l 545 529 q 518 502 545 526 q 437 583 515 502 l 437 860 q 518 941 437 863 m 109 543 l 429 543 q 483 488 432 543 l 483 486 q 429 431 483 482 l 109 431 q 54 486 105 431 l 54 488 q 109 543 54 492 m 27 472 q 109 391 31 472 l 109 114 q 3 5 16 16 l 0 5 l 0 445 q 27 472 0 448 m 518 469 q 545 442 522 469 l 545 57 q 518 30 545 54 q 437 111 515 30 l 437 388 q 518 469 437 391 m 133 109 l 410 109 q 491 27 413 109 q 464 0 491 24 l 30 0 l 30 3 q 133 109 119 98 z "},"C":{"ha":614,"x_min":0,"x_max":494,"o":"m 81 968 l 467 968 q 494 941 470 968 q 412 860 494 938 l 136 860 q 54 941 132 860 q 81 968 54 945 m 27 939 q 109 857 31 939 l 109 581 q 27 499 109 577 q 0 526 24 499 l 0 911 q 27 939 0 915 m 27 472 q 109 391 31 472 l 109 114 q 27 33 109 111 q 0 60 24 33 l 0 445 q 27 472 0 448 m 133 109 l 410 109 q 491 27 413 109 q 464 0 491 24 l 79 0 q 52 27 75 0 q 133 109 52 31 z "},"D":{"ha":614,"x_min":0,"x_max":545,"o":"m 27 968 l 467 968 q 494 941 470 968 q 412 860 494 938 l 136 860 q 27 966 37 952 l 27 968 m 0 963 l 3 963 q 109 857 6 963 l 109 581 q 27 499 109 577 q 0 526 24 499 l 0 963 m 518 941 q 545 914 522 941 l 545 529 q 518 502 545 526 q 437 583 515 502 l 437 860 q 518 941 437 863 m 27 472 q 109 391 31 472 l 109 114 q 3 5 16 16 l 0 5 l 0 445 q 27 472 0 448 m 518 469 q 545 442 522 469 l 545 57 q 518 30 545 54 q 437 111 515 30 l 437 388 q 518 469 437 391 m 133 109 l 410 109 q 491 27 413 109 q 464 0 491 24 l 30 0 l 30 3 q 133 109 119 98 z "},"E":{"ha":614,"x_min":0,"x_max":494,"o":"m 81 968 l 467 968 q 494 941 470 968 q 412 860 494 938 l 136 860 q 54 941 132 860 q 81 968 54 945 m 27 939 q 109 857 31 939 l 109 581 q 27 499 109 577 q 0 526 24 499 l 0 911 q 27 939 0 915 m 109 543 l 429 543 q 483 488 432 543 l 483 486 q 429 431 483 482 l 109 431 q 54 486 105 431 l 54 488 q 109 543 54 492 m 27 472 q 109 391 31 472 l 109 114 q 27 33 109 111 q 0 60 24 33 l 0 445 q 27 472 0 448 m 133 109 l 410 109 q 491 27 413 109 q 464 0 491 24 l 79 0 q 52 27 75 0 q 133 109 52 31 z "},"F":{"ha":614,"x_min":0,"x_max":494,"o":"m 81 968 l 467 968 q 494 941 470 968 q 412 860 494 938 l 136 860 q 54 941 132 860 q 81 968 54 945 m 27 939 q 109 857 31 939 l 109 581 q 27 499 109 577 q 0 526 24 499 l 0 911 q 27 939 0 915 m 109 543 l 429 543 q 483 488 432 543 l 483 486 q 429 431 483 482 l 109 431 q 54 486 105 431 l 54 488 q 109 543 54 492 m 27 472 q 109 391 31 472 l 109 81 q 27 0 109 78 q 0 27 24 0 l 0 445 q 27 472 0 448 z "},"G":{"ha":614,"x_min":0,"x_max":545,"o":"m 81 968 l 467 968 q 494 941 470 968 q 412 860 494 938 l 136 860 q 54 941 132 860 q 81 968 54 945 m 27 939 q 109 857 31 939 l 109 581 q 27 499 109 577 q 0 526 24 499 l 0 911 q 27 939 0 915 m 290 543 l 429 543 q 483 488 432 543 l 483 486 q 429 431 483 482 l 290 431 q 236 486 287 431 l 236 488 q 290 543 236 492 m 27 472 q 109 391 31 472 l 109 114 q 27 33 109 111 q 0 60 24 33 l 0 445 q 27 472 0 448 m 518 469 q 545 442 522 469 l 545 57 q 518 30 545 54 q 437 111 515 30 l 437 388 q 518 469 437 391 m 133 109 l 410 109 q 491 27 413 109 q 464 0 491 24 l 79 0 q 52 27 75 0 q 133 109 52 31 z "},"H":{"ha":614,"x_min":0,"x_max":545,"o":"m 27 968 q 109 887 31 968 l 109 578 q 27 496 109 574 q 0 524 24 496 l 0 941 q 27 968 0 945 m 518 968 q 545 941 522 968 l 545 524 q 518 496 545 520 q 437 578 515 496 l 437 887 q 518 968 437 890 m 109 543 l 429 543 q 483 488 432 543 l 483 486 q 429 431 483 482 l 109 431 q 54 486 105 431 l 54 488 q 109 543 54 492 m 27 472 q 109 391 31 472 l 109 81 q 27 0 109 78 q 0 27 24 0 l 0 445 q 27 472 0 448 m 518 472 q 545 445 522 472 l 545 27 q 518 0 545 24 q 437 81 515 0 l 437 391 q 518 472 437 394 z "},"I":{"ha":189,"x_min":0,"x_max":109,"o":"m 27 968 q 109 887 31 968 l 109 578 q 27 496 109 574 q 0 524 24 496 l 0 941 q 27 968 0 945 m 81 472 q 109 445 85 472 l 109 27 q 81 0 109 24 q 0 81 78 0 l 0 391 q 81 472 0 394 z "},"J":{"ha":614,"x_min":0,"x_max":545,"o":"m 518 968 q 545 941 522 968 l 545 524 q 518 496 545 520 q 437 578 515 496 l 437 887 q 518 968 437 890 m 27 472 q 109 391 31 472 l 109 114 q 27 33 109 111 q 0 60 24 33 l 0 445 q 27 472 0 448 m 518 469 q 545 442 522 469 l 545 57 q 518 30 545 54 q 437 111 515 30 l 437 388 q 518 469 437 391 m 133 109 l 410 109 q 491 27 413 109 q 464 0 491 24 l 79 0 q 52 27 75 0 q 133 109 52 31 z "},"K":{"ha":614,"x_min":0,"x_max":545,"o":"m 27 968 q 109 887 31 968 l 109 578 q 27 496 109 574 q 0 524 24 496 l 0 941 q 27 968 0 945 m 431 844 l 540 844 q 545 838 545 843 l 545 806 l 312 578 l 203 578 q 198 583 198 578 l 198 616 l 431 844 m 109 543 l 429 543 q 483 488 432 543 l 483 486 q 429 431 483 482 l 109 431 q 54 486 105 431 l 54 488 q 109 543 54 492 m 27 472 q 109 391 31 472 l 109 81 q 27 0 109 78 q 0 27 24 0 l 0 445 q 27 472 0 448 m 518 472 q 545 445 522 472 l 545 27 q 518 0 545 24 q 437 81 515 0 l 437 391 q 518 472 437 394 z "},"L":{"ha":614,"x_min":0,"x_max":491,"o":"m 0 966 l 3 966 q 109 857 7 966 l 109 581 q 27 499 109 577 q 0 526 24 499 l 0 966 m 27 472 q 109 391 31 472 l 109 114 q 27 33 109 111 q 0 60 24 33 l 0 445 q 27 472 0 448 m 133 109 l 410 109 q 491 27 413 109 q 464 0 491 24 l 79 0 q 52 27 75 0 q 133 109 52 31 z "},"M":{"ha":1109,"x_min":0,"x_max":1036,"o":"m 81 968 l 467 968 q 494 941 470 968 q 412 860 494 938 l 136 860 q 54 941 132 860 q 81 968 54 945 m 572 968 l 958 968 q 985 941 961 968 q 903 860 985 938 l 627 860 q 545 941 623 860 q 572 968 545 945 m 518 941 q 545 914 522 941 l 545 529 q 518 502 545 526 q 437 583 515 502 l 437 860 q 518 941 437 863 m 1009 941 q 1036 914 1013 941 l 1036 529 q 1009 502 1036 526 q 928 583 1006 502 l 928 860 q 1009 941 928 863 m 27 939 q 109 857 31 939 l 109 581 q 27 499 109 577 q 0 526 24 499 l 0 911 q 27 939 0 915 m 81 472 q 109 445 85 472 l 109 27 q 81 0 109 24 q 0 81 78 0 l 0 391 q 81 472 0 394 m 518 472 q 545 445 522 472 l 545 27 q 518 0 545 24 q 437 81 515 0 l 437 391 q 518 472 437 394 m 955 472 q 1036 391 958 472 l 1036 81 q 955 0 1036 78 q 928 27 951 0 l 928 445 q 955 472 928 448 z "},"N":{"ha":614,"x_min":0,"x_max":545,"o":"m 27 968 q 109 887 31 968 l 109 578 q 27 496 109 574 q 0 524 24 496 l 0 941 q 27 968 0 945 m 518 968 q 545 941 522 968 l 545 524 q 518 496 545 520 q 437 578 515 496 l 437 887 q 518 968 437 890 m 138 857 l 171 857 q 350 681 223 814 q 407 627 357 681 l 407 518 q 401 513 407 513 l 369 513 q 366 515 366 513 l 361 513 q 133 743 245 635 l 133 852 q 138 857 134 857 m 27 472 q 109 391 31 472 l 109 81 q 27 0 109 78 q 0 27 24 0 l 0 445 q 27 472 0 448 m 518 472 q 545 445 522 472 l 545 27 q 518 0 545 24 q 437 81 515 0 l 437 391 q 518 472 437 394 z "},"O":{"ha":614,"x_min":0,"x_max":545,"o":"m 81 968 l 467 968 q 494 941 470 968 q 412 860 494 938 l 136 860 q 54 941 132 860 q 81 968 54 945 m 518 941 q 545 914 522 941 l 545 529 q 518 502 545 526 q 437 583 515 502 l 437 860 q 518 941 437 863 m 27 939 q 109 857 31 939 l 109 581 q 27 499 109 577 q 0 526 24 499 l 0 911 q 27 939 0 915 m 27 472 q 109 391 31 472 l 109 114 q 27 33 109 111 q 0 60 24 33 l 0 445 q 27 472 0 448 m 518 469 q 545 442 522 469 l 545 57 q 518 30 545 54 q 437 111 515 30 l 437 388 q 518 469 437 391 m 133 109 l 410 109 q 491 27 413 109 q 464 0 491 24 l 79 0 q 52 27 75 0 q 133 109 52 31 z "},"P":{"ha":614,"x_min":0,"x_max":545,"o":"m 81 968 l 467 968 q 494 941 470 968 q 412 860 494 938 l 136 860 q 54 941 132 860 q 81 968 54 945 m 518 941 q 545 914 522 941 l 545 529 q 518 502 545 526 q 437 583 515 502 l 437 860 q 518 941 437 863 m 27 939 q 109 857 31 939 l 109 581 q 27 499 109 577 q 0 526 24 499 l 0 911 q 27 939 0 915 m 109 543 l 429 543 q 483 488 432 543 l 483 486 q 429 431 483 482 l 109 431 q 54 486 105 431 l 54 488 q 109 543 54 492 m 27 472 q 109 391 31 472 l 109 81 q 27 0 109 78 q 0 27 24 0 l 0 445 q 27 472 0 448 z "},"Q":{"ha":614,"x_min":0,"x_max":545,"o":"m 81 968 l 467 968 q 494 941 470 968 q 412 860 494 938 l 136 860 q 54 941 132 860 q 81 968 54 945 m 518 941 q 545 914 522 941 l 545 529 q 518 502 545 526 q 437 583 515 502 l 437 860 q 518 941 437 863 m 27 939 q 109 857 31 939 l 109 581 q 27 499 109 577 q 0 526 24 499 l 0 911 q 27 939 0 915 m 27 472 q 109 391 31 472 l 109 114 q 27 33 109 111 q 0 60 24 33 l 0 445 q 27 472 0 448 m 518 469 q 545 442 522 469 l 545 57 q 518 30 545 54 q 437 111 515 30 l 437 388 q 518 469 437 391 m 271 241 l 274 241 q 328 187 277 241 l 328 141 q 323 136 328 136 l 222 136 q 217 141 217 136 l 217 187 q 271 241 217 191 m 133 109 l 410 109 q 491 27 413 109 q 464 0 491 24 l 79 0 q 52 27 75 0 q 133 109 52 31 m 222 -27 l 323 -27 q 328 -33 328 -28 l 328 -81 q 274 -136 328 -85 l 271 -136 q 217 -81 268 -136 l 217 -33 q 222 -27 218 -27 z "},"R":{"ha":614,"x_min":0,"x_max":545,"o":"m 81 968 l 467 968 q 494 941 470 968 q 412 860 494 938 l 136 860 q 54 941 132 860 q 81 968 54 945 m 518 941 q 545 914 522 941 l 545 529 q 518 502 545 526 q 437 583 515 502 l 437 860 q 518 941 437 863 m 27 939 q 109 857 31 939 l 109 581 q 27 499 109 577 q 0 526 24 499 l 0 911 q 27 939 0 915 m 109 543 l 429 543 q 483 488 432 543 l 483 486 q 429 431 483 482 l 109 431 q 54 486 105 431 l 54 488 q 109 543 54 492 m 27 472 q 109 391 31 472 l 109 81 q 27 0 109 78 q 0 27 24 0 l 0 445 q 27 472 0 448 m 298 404 l 377 404 q 475 228 434 375 q 545 35 486 205 q 532 3 532 8 l 529 3 q 418 68 418 43 q 293 401 336 299 l 298 404 z "},"S":{"ha":614,"x_min":0,"x_max":545,"o":"m 81 968 l 467 968 q 494 941 470 968 q 412 860 494 938 l 136 860 q 54 941 132 860 q 81 968 54 945 m 27 939 q 109 857 31 939 l 109 581 q 27 499 109 577 q 0 526 24 499 l 0 911 q 27 939 0 915 m 109 543 l 429 543 q 483 488 432 543 l 483 486 q 429 431 483 482 l 109 431 q 54 486 105 431 l 54 488 q 109 543 54 492 m 518 469 q 545 442 522 469 l 545 57 q 518 30 545 54 q 437 111 515 30 l 437 388 q 518 469 437 391 m 133 109 l 410 109 q 491 27 413 109 q 464 0 491 24 l 79 0 q 52 27 75 0 q 133 109 52 31 z "},"T":{"ha":614,"x_min":0,"x_max":545,"o":"m 27 968 l 518 968 q 545 941 522 968 q 464 860 545 938 l 81 860 q 0 941 78 860 q 27 968 0 945 m 263 811 q 345 730 267 811 l 345 510 q 263 429 345 507 q 236 456 260 429 l 236 784 q 263 811 236 787 m 317 380 q 345 353 321 380 l 345 27 q 317 0 345 24 q 236 81 314 0 l 236 298 q 317 380 236 302 z "},"U":{"ha":614,"x_min":0,"x_max":545,"o":"m 27 968 q 109 887 31 968 l 109 578 q 27 496 109 574 q 0 524 24 496 l 0 941 q 27 968 0 945 m 518 968 q 545 941 522 968 l 545 524 q 518 496 545 520 q 437 578 515 496 l 437 887 q 518 968 437 890 m 27 469 q 109 388 31 469 l 109 111 q 27 30 109 108 q 0 57 24 30 l 0 442 q 27 469 0 446 m 518 467 q 545 439 522 467 l 545 54 q 518 27 545 51 q 437 109 515 27 l 437 385 q 518 467 437 389 m 136 109 l 412 109 q 494 27 416 109 q 467 0 494 24 l 81 0 q 54 27 78 0 q 136 109 54 31 z "},"V":{"ha":614,"x_min":0,"x_max":543,"o":"m 27 968 q 109 887 31 968 l 109 480 q 27 399 109 477 q 0 426 24 399 l 0 941 q 27 968 0 945 m 513 968 l 518 968 q 543 944 522 968 l 543 437 q 515 410 543 433 q 434 491 512 410 l 434 890 q 513 968 434 893 m 11 377 q 125 347 115 353 q 266 119 135 326 q 239 5 245 5 l 236 5 q 190 35 200 5 q 0 339 169 64 q 11 377 5 368 m 534 369 q 543 328 543 342 l 336 5 q 304 0 309 0 q 277 111 297 12 q 423 345 418 342 q 534 369 516 369 z "},"W":{"ha":1044,"x_min":0,"x_max":977,"o":"m 27 979 q 109 898 31 979 l 109 491 q 27 410 109 488 q 0 437 24 410 l 0 952 q 27 979 0 956 m 515 979 q 543 952 519 979 l 543 491 q 461 410 543 488 q 434 437 458 410 l 434 898 q 515 979 434 901 m 949 979 q 977 952 953 979 l 977 437 q 949 410 977 433 q 868 491 946 410 l 868 898 q 949 979 868 901 m 11 377 q 125 347 115 353 q 266 119 135 326 q 239 5 245 5 l 236 5 q 190 35 200 5 q 0 339 169 64 q 11 377 5 368 m 534 369 l 537 363 l 537 358 q 353 27 456 185 q 304 0 342 0 q 277 111 297 12 q 423 345 418 342 q 534 369 516 369 m 968 369 q 977 328 977 342 l 770 5 q 738 0 743 0 q 711 111 731 12 q 857 345 852 342 q 968 369 950 369 m 567 328 q 700 119 574 322 q 673 5 679 5 l 670 5 q 624 35 634 5 l 507 220 q 567 328 562 326 z "},"X":{"ha":614,"x_min":0,"x_max":545,"o":"m 11 968 q 127 930 127 943 l 263 708 q 236 594 241 602 q 190 621 190 602 l 0 928 q 11 968 0 949 m 534 968 q 545 930 540 959 q 342 602 353 613 q 309 594 334 602 q 282 708 304 594 q 426 941 422 940 l 534 968 m 136 537 l 461 537 q 488 510 465 537 q 407 429 488 507 l 81 429 q 54 456 78 429 q 136 537 54 459 m 236 372 q 263 255 241 366 q 117 24 130 41 q 8 0 26 0 q 0 38 0 28 q 203 363 184 340 l 236 372 m 309 372 q 358 339 358 362 q 545 35 444 204 q 529 0 541 0 q 415 41 415 20 q 282 260 302 222 q 309 372 304 367 z "},"Y":{"ha":614,"x_min":0,"x_max":543,"o":"m 27 968 q 109 887 31 968 l 109 773 q 27 692 109 770 q 0 719 24 692 l 0 941 q 27 968 0 945 m 515 968 q 543 941 519 968 l 543 719 q 515 692 543 715 q 434 773 512 692 l 434 887 q 515 968 434 890 m 11 670 q 125 640 115 646 q 266 412 135 619 q 239 298 245 298 l 236 298 q 190 328 200 298 q 0 632 169 357 q 11 670 5 661 m 534 662 q 543 621 543 635 l 336 298 q 304 293 309 293 q 277 404 297 305 q 423 637 418 635 q 534 662 516 662 m 288 277 q 315 250 291 277 l 315 27 q 288 0 315 24 q 206 81 284 0 l 206 195 q 288 277 206 199 z "},"Z":{"ha":611,"x_min":0,"x_max":537,"o":"m 27 968 l 412 968 q 439 941 416 968 q 358 860 439 938 l 81 860 q 0 941 78 860 q 27 968 0 945 m 469 884 q 499 768 499 793 q 336 491 496 766 q 301 483 304 483 q 271 600 272 572 q 434 876 281 612 q 469 884 466 884 m 241 480 q 271 363 271 389 q 109 87 268 361 l 73 79 q 43 195 44 168 q 206 472 54 208 q 241 480 238 480 m 179 109 l 456 109 q 537 27 459 109 q 510 0 537 24 l 125 0 q 98 27 121 0 q 179 109 98 31 z "},"[":{"ha":406,"x_min":0,"x_max":312,"o":"m 258 958 q 312 903 312 907 q 255 846 258 846 l 119 846 q 62 903 62 900 q 117 958 113 958 l 258 958 m 27 884 q 111 795 111 810 l 111 529 q 27 445 31 445 q 0 472 0 469 l 0 857 q 27 884 24 884 m 27 410 q 109 347 94 362 l 109 136 q 27 73 94 121 q 0 95 9 83 l 0 388 q 27 410 9 400 m 255 111 q 312 54 312 58 q 258 0 261 0 l 117 0 q 62 54 62 51 q 119 111 116 111 l 255 111 z "},"\\":{"ha":612,"x_min":0,"x_max":534,"o":"m 8 968 q 114 936 14 968 q 269 654 128 917 q 258 613 269 633 q 152 646 161 646 q 0 930 0 920 l 0 933 q 8 968 0 956 m 174 629 q 277 597 272 597 q 434 312 295 575 q 423 274 434 298 q 317 307 417 274 q 163 589 303 326 q 174 629 163 609 m 339 285 q 442 258 344 285 q 534 109 456 256 q 502 0 507 9 q 469 8 494 0 q 328 247 452 28 q 339 285 333 276 z "},"]":{"ha":410,"x_min":0,"x_max":312,"o":"m 54 958 l 195 958 q 250 903 199 958 q 193 846 250 900 l 57 846 q 0 903 54 846 q 54 958 0 907 m 285 884 q 312 857 288 884 l 312 472 q 285 445 312 469 q 201 529 281 445 l 201 795 q 285 884 201 810 m 285 410 q 312 388 303 400 l 312 95 q 285 73 303 83 q 203 136 218 121 l 203 347 q 285 410 218 362 m 57 111 l 193 111 q 250 54 196 111 q 195 0 250 51 l 54 0 q 0 54 51 0 q 57 111 0 58 z "},"^":{"ha":711,"x_min":38,"x_max":618,"o":"m 382 1063 q 412 1058 401 1058 q 618 724 427 1045 q 608 686 618 706 q 499 711 576 692 q 353 952 494 713 q 382 1063 377 1054 m 271 1063 q 301 949 277 1063 l 160 716 q 52 686 160 709 q 38 719 38 686 l 38 722 q 214 1017 38 732 q 271 1063 232 1063 z "},"_":{"ha":438,"x_min":6,"x_max":435,"o":"m 60 111 l 380 111 q 435 57 384 111 l 435 54 q 380 0 435 51 l 60 0 q 6 54 57 0 l 6 57 q 60 111 6 60 z "},"`":{"ha":694,"x_min":289,"x_max":468,"o":"m 397 1015 q 468 912 414 1015 q 435 804 445 804 l 430 804 q 406 806 420 804 q 289 1002 394 816 q 300 1040 294 1031 l 397 1015 z "},"a":{"ha":614,"x_min":0,"x_max":545,"o":"m 81 968 l 467 968 q 494 941 470 968 q 412 860 494 938 l 136 860 q 54 941 132 860 q 81 968 54 945 m 518 941 q 545 914 522 941 l 545 529 q 518 502 545 526 q 437 583 515 502 l 437 860 q 518 941 437 863 m 27 939 q 109 857 31 939 l 109 581 q 27 499 109 577 q 0 526 24 499 l 0 911 q 27 939 0 915 m 109 543 l 429 543 q 483 488 432 543 l 483 486 q 429 431 483 482 l 109 431 q 54 486 105 431 l 54 488 q 109 543 54 492 m 27 472 q 109 391 31 472 l 109 81 q 27 0 109 78 q 0 27 24 0 l 0 445 q 27 472 0 448 m 518 472 q 545 445 522 472 l 545 27 q 518 0 545 24 q 437 81 515 0 l 437 391 q 518 472 437 394 z "},"b":{"ha":614,"x_min":0,"x_max":545,"o":"m 27 968 l 467 968 q 494 941 470 968 q 412 860 494 938 l 136 860 q 27 966 37 952 l 27 968 m 0 963 l 3 963 q 109 857 6 963 l 109 581 q 27 499 109 577 q 0 526 24 499 l 0 963 m 518 941 q 545 914 522 941 l 545 529 q 518 502 545 526 q 437 583 515 502 l 437 860 q 518 941 437 863 m 109 543 l 429 543 q 483 488 432 543 l 483 486 q 429 431 483 482 l 109 431 q 54 486 105 431 l 54 488 q 109 543 54 492 m 27 472 q 109 391 31 472 l 109 114 q 3 5 16 16 l 0 5 l 0 445 q 27 472 0 448 m 518 469 q 545 442 522 469 l 545 57 q 518 30 545 54 q 437 111 515 30 l 437 388 q 518 469 437 391 m 133 109 l 410 109 q 491 27 413 109 q 464 0 491 24 l 30 0 l 30 3 q 133 109 119 98 z "},"c":{"ha":614,"x_min":0,"x_max":494,"o":"m 81 968 l 467 968 q 494 941 470 968 q 412 860 494 938 l 136 860 q 54 941 132 860 q 81 968 54 945 m 27 939 q 109 857 31 939 l 109 581 q 27 499 109 577 q 0 526 24 499 l 0 911 q 27 939 0 915 m 27 472 q 109 391 31 472 l 109 114 q 27 33 109 111 q 0 60 24 33 l 0 445 q 27 472 0 448 m 133 109 l 410 109 q 491 27 413 109 q 464 0 491 24 l 79 0 q 52 27 75 0 q 133 109 52 31 z "},"d":{"ha":614,"x_min":0,"x_max":545,"o":"m 27 968 l 467 968 q 494 941 470 968 q 412 860 494 938 l 136 860 q 27 966 37 952 l 27 968 m 0 963 l 3 963 q 109 857 6 963 l 109 581 q 27 499 109 577 q 0 526 24 499 l 0 963 m 518 941 q 545 914 522 941 l 545 529 q 518 502 545 526 q 437 583 515 502 l 437 860 q 518 941 437 863 m 27 472 q 109 391 31 472 l 109 114 q 3 5 16 16 l 0 5 l 0 445 q 27 472 0 448 m 518 469 q 545 442 522 469 l 545 57 q 518 30 545 54 q 437 111 515 30 l 437 388 q 518 469 437 391 m 133 109 l 410 109 q 491 27 413 109 q 464 0 491 24 l 30 0 l 30 3 q 133 109 119 98 z "},"e":{"ha":614,"x_min":0,"x_max":494,"o":"m 81 968 l 467 968 q 494 941 470 968 q 412 860 494 938 l 136 860 q 54 941 132 860 q 81 968 54 945 m 27 939 q 109 857 31 939 l 109 581 q 27 499 109 577 q 0 526 24 499 l 0 911 q 27 939 0 915 m 109 543 l 429 543 q 483 488 432 543 l 483 486 q 429 431 483 482 l 109 431 q 54 486 105 431 l 54 488 q 109 543 54 492 m 27 472 q 109 391 31 472 l 109 114 q 27 33 109 111 q 0 60 24 33 l 0 445 q 27 472 0 448 m 133 109 l 410 109 q 491 27 413 109 q 464 0 491 24 l 79 0 q 52 27 75 0 q 133 109 52 31 z "},"f":{"ha":614,"x_min":0,"x_max":494,"o":"m 81 968 l 467 968 q 494 941 470 968 q 412 860 494 938 l 136 860 q 54 941 132 860 q 81 968 54 945 m 27 939 q 109 857 31 939 l 109 581 q 27 499 109 577 q 0 526 24 499 l 0 911 q 27 939 0 915 m 109 543 l 429 543 q 483 488 432 543 l 483 486 q 429 431 483 482 l 109 431 q 54 486 105 431 l 54 488 q 109 543 54 492 m 27 472 q 109 391 31 472 l 109 81 q 27 0 109 78 q 0 27 24 0 l 0 445 q 27 472 0 448 z "},"g":{"ha":614,"x_min":0,"x_max":545,"o":"m 81 968 l 467 968 q 494 941 470 968 q 412 860 494 938 l 136 860 q 54 941 132 860 q 81 968 54 945 m 27 939 q 109 857 31 939 l 109 581 q 27 499 109 577 q 0 526 24 499 l 0 911 q 27 939 0 915 m 290 543 l 429 543 q 483 488 432 543 l 483 486 q 429 431 483 482 l 290 431 q 236 486 287 431 l 236 488 q 290 543 236 492 m 27 472 q 109 391 31 472 l 109 114 q 27 33 109 111 q 0 60 24 33 l 0 445 q 27 472 0 448 m 518 469 q 545 442 522 469 l 545 57 q 518 30 545 54 q 437 111 515 30 l 437 388 q 518 469 437 391 m 133 109 l 410 109 q 491 27 413 109 q 464 0 491 24 l 79 0 q 52 27 75 0 q 133 109 52 31 z "},"h":{"ha":614,"x_min":0,"x_max":545,"o":"m 27 968 q 109 887 31 968 l 109 578 q 27 496 109 574 q 0 524 24 496 l 0 941 q 27 968 0 945 m 518 968 q 545 941 522 968 l 545 524 q 518 496 545 520 q 437 578 515 496 l 437 887 q 518 968 437 890 m 109 543 l 429 543 q 483 488 432 543 l 483 486 q 429 431 483 482 l 109 431 q 54 486 105 431 l 54 488 q 109 543 54 492 m 27 472 q 109 391 31 472 l 109 81 q 27 0 109 78 q 0 27 24 0 l 0 445 q 27 472 0 448 m 518 472 q 545 445 522 472 l 545 27 q 518 0 545 24 q 437 81 515 0 l 437 391 q 518 472 437 394 z "},"i":{"ha":189,"x_min":0,"x_max":109,"o":"m 27 968 q 109 887 31 968 l 109 578 q 27 496 109 574 q 0 524 24 496 l 0 941 q 27 968 0 945 m 81 472 q 109 445 85 472 l 109 27 q 81 0 109 24 q 0 81 78 0 l 0 391 q 81 472 0 394 z "},"j":{"ha":614,"x_min":0,"x_max":545,"o":"m 518 968 q 545 941 522 968 l 545 524 q 518 496 545 520 q 437 578 515 496 l 437 887 q 518 968 437 890 m 27 472 q 109 391 31 472 l 109 114 q 27 33 109 111 q 0 60 24 33 l 0 445 q 27 472 0 448 m 518 469 q 545 442 522 469 l 545 57 q 518 30 545 54 q 437 111 515 30 l 437 388 q 518 469 437 391 m 133 109 l 410 109 q 491 27 413 109 q 464 0 491 24 l 79 0 q 52 27 75 0 q 133 109 52 31 z "},"k":{"ha":614,"x_min":0,"x_max":545,"o":"m 27 968 q 109 887 31 968 l 109 578 q 27 496 109 574 q 0 524 24 496 l 0 941 q 27 968 0 945 m 431 844 l 540 844 q 545 838 545 843 l 545 806 l 312 578 l 203 578 q 198 583 198 578 l 198 616 l 431 844 m 109 543 l 429 543 q 483 488 432 543 l 483 486 q 429 431 483 482 l 109 431 q 54 486 105 431 l 54 488 q 109 543 54 492 m 27 472 q 109 391 31 472 l 109 81 q 27 0 109 78 q 0 27 24 0 l 0 445 q 27 472 0 448 m 518 472 q 545 445 522 472 l 545 27 q 518 0 545 24 q 437 81 515 0 l 437 391 q 518 472 437 394 z "},"l":{"ha":614,"x_min":0,"x_max":491,"o":"m 0 966 l 3 966 q 109 857 7 966 l 109 581 q 27 499 109 577 q 0 526 24 499 l 0 966 m 27 472 q 109 391 31 472 l 109 114 q 27 33 109 111 q 0 60 24 33 l 0 445 q 27 472 0 448 m 133 109 l 410 109 q 491 27 413 109 q 464 0 491 24 l 79 0 q 52 27 75 0 q 133 109 52 31 z "},"m":{"ha":1109,"x_min":0,"x_max":1036,"o":"m 81 968 l 467 968 q 494 941 470 968 q 412 860 494 938 l 136 860 q 54 941 132 860 q 81 968 54 945 m 572 968 l 958 968 q 985 941 961 968 q 903 860 985 938 l 627 860 q 545 941 623 860 q 572 968 545 945 m 518 941 q 545 914 522 941 l 545 529 q 518 502 545 526 q 437 583 515 502 l 437 860 q 518 941 437 863 m 1009 941 q 1036 914 1013 941 l 1036 529 q 1009 502 1036 526 q 928 583 1006 502 l 928 860 q 1009 941 928 863 m 27 939 q 109 857 31 939 l 109 581 q 27 499 109 577 q 0 526 24 499 l 0 911 q 27 939 0 915 m 81 472 q 109 445 85 472 l 109 27 q 81 0 109 24 q 0 81 78 0 l 0 391 q 81 472 0 394 m 518 472 q 545 445 522 472 l 545 27 q 518 0 545 24 q 437 81 515 0 l 437 391 q 518 472 437 394 m 955 472 q 1036 391 958 472 l 1036 81 q 955 0 1036 78 q 928 27 951 0 l 928 445 q 955 472 928 448 z "},"n":{"ha":614,"x_min":0,"x_max":545,"o":"m 27 968 q 109 887 31 968 l 109 578 q 27 496 109 574 q 0 524 24 496 l 0 941 q 27 968 0 945 m 518 968 q 545 941 522 968 l 545 524 q 518 496 545 520 q 437 578 515 496 l 437 887 q 518 968 437 890 m 138 857 l 171 857 q 350 681 223 814 q 407 627 357 681 l 407 518 q 401 513 407 513 l 369 513 q 366 515 366 513 l 361 513 q 133 743 245 635 l 133 852 q 138 857 134 857 m 27 472 q 109 391 31 472 l 109 81 q 27 0 109 78 q 0 27 24 0 l 0 445 q 27 472 0 448 m 518 472 q 545 445 522 472 l 545 27 q 518 0 545 24 q 437 81 515 0 l 437 391 q 518 472 437 394 z "},"o":{"ha":614,"x_min":0,"x_max":545,"o":"m 81 968 l 467 968 q 494 941 470 968 q 412 860 494 938 l 136 860 q 54 941 132 860 q 81 968 54 945 m 518 941 q 545 914 522 941 l 545 529 q 518 502 545 526 q 437 583 515 502 l 437 860 q 518 941 437 863 m 27 939 q 109 857 31 939 l 109 581 q 27 499 109 577 q 0 526 24 499 l 0 911 q 27 939 0 915 m 27 472 q 109 391 31 472 l 109 114 q 27 33 109 111 q 0 60 24 33 l 0 445 q 27 472 0 448 m 518 469 q 545 442 522 469 l 545 57 q 518 30 545 54 q 437 111 515 30 l 437 388 q 518 469 437 391 m 133 109 l 410 109 q 491 27 413 109 q 464 0 491 24 l 79 0 q 52 27 75 0 q 133 109 52 31 z "},"p":{"ha":614,"x_min":0,"x_max":545,"o":"m 81 968 l 467 968 q 494 941 470 968 q 412 860 494 938 l 136 860 q 54 941 132 860 q 81 968 54 945 m 518 941 q 545 914 522 941 l 545 529 q 518 502 545 526 q 437 583 515 502 l 437 860 q 518 941 437 863 m 27 939 q 109 857 31 939 l 109 581 q 27 499 109 577 q 0 526 24 499 l 0 911 q 27 939 0 915 m 109 543 l 429 543 q 483 488 432 543 l 483 486 q 429 431 483 482 l 109 431 q 54 486 105 431 l 54 488 q 109 543 54 492 m 27 472 q 109 391 31 472 l 109 81 q 27 0 109 78 q 0 27 24 0 l 0 445 q 27 472 0 448 z "},"q":{"ha":614,"x_min":0,"x_max":545,"o":"m 81 968 l 467 968 q 494 941 470 968 q 412 860 494 938 l 136 860 q 54 941 132 860 q 81 968 54 945 m 518 941 q 545 914 522 941 l 545 529 q 518 502 545 526 q 437 583 515 502 l 437 860 q 518 941 437 863 m 27 939 q 109 857 31 939 l 109 581 q 27 499 109 577 q 0 526 24 499 l 0 911 q 27 939 0 915 m 27 472 q 109 391 31 472 l 109 114 q 27 33 109 111 q 0 60 24 33 l 0 445 q 27 472 0 448 m 518 469 q 545 442 522 469 l 545 57 q 518 30 545 54 q 437 111 515 30 l 437 388 q 518 469 437 391 m 271 241 l 274 241 q 328 187 277 241 l 328 141 q 323 136 328 136 l 222 136 q 217 141 217 136 l 217 187 q 271 241 217 191 m 133 109 l 410 109 q 491 27 413 109 q 464 0 491 24 l 79 0 q 52 27 75 0 q 133 109 52 31 m 222 -27 l 323 -27 q 328 -33 328 -28 l 328 -81 q 274 -136 328 -85 l 271 -136 q 217 -81 268 -136 l 217 -33 q 222 -27 218 -27 z "},"r":{"ha":614,"x_min":0,"x_max":545,"o":"m 81 968 l 467 968 q 494 941 470 968 q 412 860 494 938 l 136 860 q 54 941 132 860 q 81 968 54 945 m 518 941 q 545 914 522 941 l 545 529 q 518 502 545 526 q 437 583 515 502 l 437 860 q 518 941 437 863 m 27 939 q 109 857 31 939 l 109 581 q 27 499 109 577 q 0 526 24 499 l 0 911 q 27 939 0 915 m 109 543 l 429 543 q 483 488 432 543 l 483 486 q 429 431 483 482 l 109 431 q 54 486 105 431 l 54 488 q 109 543 54 492 m 27 472 q 109 391 31 472 l 109 81 q 27 0 109 78 q 0 27 24 0 l 0 445 q 27 472 0 448 m 298 404 l 377 404 q 475 228 434 375 q 545 35 486 205 q 532 3 532 8 l 529 3 q 418 68 418 43 q 293 401 336 299 l 298 404 z "},"s":{"ha":614,"x_min":0,"x_max":545,"o":"m 81 968 l 467 968 q 494 941 470 968 q 412 860 494 938 l 136 860 q 54 941 132 860 q 81 968 54 945 m 27 939 q 109 857 31 939 l 109 581 q 27 499 109 577 q 0 526 24 499 l 0 911 q 27 939 0 915 m 109 543 l 429 543 q 483 488 432 543 l 483 486 q 429 431 483 482 l 109 431 q 54 486 105 431 l 54 488 q 109 543 54 492 m 518 469 q 545 442 522 469 l 545 57 q 518 30 545 54 q 437 111 515 30 l 437 388 q 518 469 437 391 m 133 109 l 410 109 q 491 27 413 109 q 464 0 491 24 l 79 0 q 52 27 75 0 q 133 109 52 31 z "},"t":{"ha":614,"x_min":0,"x_max":545,"o":"m 27 968 l 518 968 q 545 941 522 968 q 464 860 545 938 l 81 860 q 0 941 78 860 q 27 968 0 945 m 263 811 q 345 730 267 811 l 345 510 q 263 429 345 507 q 236 456 260 429 l 236 784 q 263 811 236 787 m 317 380 q 345 353 321 380 l 345 27 q 317 0 345 24 q 236 81 314 0 l 236 298 q 317 380 236 302 z "},"u":{"ha":614,"x_min":0,"x_max":545,"o":"m 27 968 q 109 887 31 968 l 109 578 q 27 496 109 574 q 0 524 24 496 l 0 941 q 27 968 0 945 m 518 968 q 545 941 522 968 l 545 524 q 518 496 545 520 q 437 578 515 496 l 437 887 q 518 968 437 890 m 27 469 q 109 388 31 469 l 109 111 q 27 30 109 108 q 0 57 24 30 l 0 442 q 27 469 0 446 m 518 467 q 545 439 522 467 l 545 54 q 518 27 545 51 q 437 109 515 27 l 437 385 q 518 467 437 389 m 136 109 l 412 109 q 494 27 416 109 q 467 0 494 24 l 81 0 q 54 27 78 0 q 136 109 54 31 z "},"v":{"ha":614,"x_min":0,"x_max":543,"o":"m 27 968 q 109 887 31 968 l 109 480 q 27 399 109 477 q 0 426 24 399 l 0 941 q 27 968 0 945 m 513 968 l 518 968 q 543 944 522 968 l 543 437 q 515 410 543 433 q 434 491 512 410 l 434 890 q 513 968 434 893 m 11 377 q 125 347 115 353 q 266 119 135 326 q 239 5 245 5 l 236 5 q 190 35 200 5 q 0 339 169 64 q 11 377 5 368 m 534 369 q 543 328 543 342 l 336 5 q 304 0 309 0 q 277 111 297 12 q 423 345 418 342 q 534 369 516 369 z "},"w":{"ha":1044,"x_min":0,"x_max":977,"o":"m 27 979 q 109 898 31 979 l 109 491 q 27 410 109 488 q 0 437 24 410 l 0 952 q 27 979 0 956 m 515 979 q 543 952 519 979 l 543 491 q 461 410 543 488 q 434 437 458 410 l 434 898 q 515 979 434 901 m 949 979 q 977 952 953 979 l 977 437 q 949 410 977 433 q 868 491 946 410 l 868 898 q 949 979 868 901 m 11 377 q 125 347 115 353 q 266 119 135 326 q 239 5 245 5 l 236 5 q 190 35 200 5 q 0 339 169 64 q 11 377 5 368 m 534 369 l 537 363 l 537 358 q 353 27 456 185 q 304 0 342 0 q 277 111 297 12 q 423 345 418 342 q 534 369 516 369 m 968 369 q 977 328 977 342 l 770 5 q 738 0 743 0 q 711 111 731 12 q 857 345 852 342 q 968 369 950 369 m 567 328 q 700 119 574 322 q 673 5 679 5 l 670 5 q 624 35 634 5 l 507 220 q 567 328 562 326 z "},"x":{"ha":614,"x_min":0,"x_max":545,"o":"m 11 968 q 127 930 127 943 l 263 708 q 236 594 241 602 q 190 621 190 602 l 0 928 q 11 968 0 949 m 534 968 q 545 930 540 959 q 342 602 353 613 q 309 594 334 602 q 282 708 304 594 q 426 941 422 940 l 534 968 m 136 537 l 461 537 q 488 510 465 537 q 407 429 488 507 l 81 429 q 54 456 78 429 q 136 537 54 459 m 236 372 q 263 255 241 366 q 117 24 130 41 q 8 0 26 0 q 0 38 0 28 q 203 363 184 340 l 236 372 m 309 372 q 358 339 358 362 q 545 35 444 204 q 529 0 541 0 q 415 41 415 20 q 282 260 302 222 q 309 372 304 367 z "},"y":{"ha":614,"x_min":0,"x_max":543,"o":"m 27 968 q 109 887 31 968 l 109 773 q 27 692 109 770 q 0 719 24 692 l 0 941 q 27 968 0 945 m 515 968 q 543 941 519 968 l 543 719 q 515 692 543 715 q 434 773 512 692 l 434 887 q 515 968 434 890 m 11 670 q 125 640 115 646 q 266 412 135 619 q 239 298 245 298 l 236 298 q 190 328 200 298 q 0 632 169 357 q 11 670 5 661 m 534 662 q 543 621 543 635 l 336 298 q 304 293 309 293 q 277 404 297 305 q 423 637 418 635 q 534 662 516 662 m 288 277 q 315 250 291 277 l 315 27 q 288 0 315 24 q 206 81 284 0 l 206 195 q 288 277 206 199 z "},"z":{"ha":611,"x_min":0,"x_max":537,"o":"m 27 968 l 412 968 q 439 941 416 968 q 358 860 439 938 l 81 860 q 0 941 78 860 q 27 968 0 945 m 469 884 q 499 768 499 793 q 336 491 496 766 q 301 483 304 483 q 271 600 272 572 q 434 876 281 612 q 469 884 466 884 m 241 480 q 271 363 271 389 q 109 87 268 361 l 73 79 q 43 195 44 168 q 206 472 54 208 q 241 480 238 480 m 179 109 l 456 109 q 537 27 459 109 q 510 0 537 24 l 125 0 q 98 27 121 0 q 179 109 98 31 z "},"{":{"ha":408,"x_min":0,"x_max":320,"o":"m 293 968 q 320 941 296 968 l 320 524 q 293 496 320 520 q 212 578 290 496 l 212 887 q 293 968 212 890 m 49 496 l 247 496 q 263 480 251 496 q 214 431 263 477 l 16 431 q 0 448 12 431 q 49 496 0 451 m 293 439 q 320 412 296 439 l 320 27 q 293 0 320 24 q 212 81 290 0 l 212 358 q 293 439 212 361 z "},"|":{"ha":200,"x_min":0,"x_max":109,"o":"m 81 749 q 109 722 85 749 l 109 336 q 81 309 109 333 q 0 391 78 309 l 0 667 q 81 749 0 671 m 81 277 q 109 250 85 277 l 109 -136 q 81 -163 109 -139 q 0 -81 78 -163 l 0 195 q 81 277 0 199 m 81 1214 q 109 1187 85 1214 l 109 802 q 81 774 109 798 q 0 856 78 774 l 0 1133 q 81 1214 0 1136 z "},"}":{"ha":408,"x_min":0,"x_max":320,"o":"m 27 968 q 109 887 109 890 l 109 578 q 27 496 31 496 q 0 524 0 520 l 0 941 q 27 968 24 968 m 271 496 q 320 448 320 451 q 304 431 308 431 l 106 431 q 57 480 57 477 q 73 496 69 496 l 271 496 m 27 439 q 109 358 109 361 l 109 81 q 27 0 31 0 q 0 27 0 24 l 0 412 q 27 439 24 439 z "},"~":{"ha":680,"x_min":10,"x_max":564,"o":"m 185 901 q 191 831 188 891 q 79 705 82 705 l 14 701 q 10 725 10 710 q 165 900 161 899 q 185 901 168 900 m 203 888 q 275 880 275 884 q 381 758 288 862 q 373 689 378 689 l 353 689 q 199 865 326 718 q 203 888 199 877 m 562 888 l 564 885 l 564 864 q 412 689 481 766 l 392 689 q 384 758 387 689 q 496 884 493 884 l 562 888 z "},"¡":{"ha":211,"x_min":0,"x_max":146,"o":"m 46 -170 q 19 -142 19 -146 l 19 186 q 46 213 43 213 q 127 132 127 135 l 127 -88 q 46 -170 50 -170 m 100 194 q 19 275 19 272 l 19 492 q 100 574 97 574 q 127 547 127 550 l 127 221 q 100 194 104 194 m 43 633 q 24 652 24 648 l 24 655 q 57 680 43 680 l 62 680 q 106 642 76 680 l 106 639 q 100 633 106 634 l 43 633 m 119 661 q 100 693 100 671 l 100 718 q 136 750 100 721 l 138 750 q 146 742 146 746 l 146 685 q 122 661 125 661 l 119 661 m 11 677 q 0 688 0 684 l 0 745 q 24 769 21 769 l 30 769 q 46 747 30 764 l 46 712 q 11 677 15 677 m 76 750 q 41 788 41 781 l 41 791 q 46 796 41 796 l 103 796 q 125 774 125 778 q 90 750 106 750 l 76 750 z "},"¢":{"ha":772,"x_min":0,"x_max":0,"o":""},"£":{"ha":688,"x_min":0,"x_max":0,"o":""},"¤":{"ha":688,"x_min":0,"x_max":0,"o":""},"¥":{"ha":614,"x_min":0,"x_max":0,"o":""},"¦":{"ha":688,"x_min":0,"x_max":0,"o":""},"§":{"ha":688,"x_min":0,"x_max":0,"o":""},"¨":{"ha":694,"x_min":98,"x_max":633,"o":"m 163 935 l 168 935 q 233 870 172 935 l 233 865 q 168 800 233 861 l 163 800 q 98 865 159 800 l 98 870 q 163 935 98 874 m 563 932 l 568 932 q 633 867 572 932 l 633 862 q 568 797 633 858 l 563 797 q 498 862 559 797 l 498 867 q 563 932 498 871 z "},"©":{"ha":1135,"x_min":0,"x_max":0,"o":""},"ª":{"ha":439,"x_min":0,"x_max":0,"o":""},"«":{"ha":640,"x_min":0,"x_max":0,"o":""},"¬":{"ha":688,"x_min":0,"x_max":0,"o":""},"®":{"ha":1135,"x_min":0,"x_max":0,"o":""},"¯":{"ha":454,"x_min":0,"x_max":0,"o":""},"°":{"ha":457,"x_min":116,"x_max":311,"o":"m 176 975 l 249 975 q 262 961 252 975 l 262 958 q 219 915 262 955 l 146 915 q 132 928 142 915 l 132 931 q 176 975 132 935 m 265 947 l 268 947 q 311 904 271 947 l 311 831 q 298 817 311 827 l 295 817 q 252 861 292 817 l 252 934 q 265 947 252 937 m 130 915 l 132 915 q 176 871 136 915 l 176 798 q 162 785 176 795 l 159 785 q 116 828 156 785 l 116 901 q 130 915 116 905 m 208 817 l 281 817 q 295 804 285 817 l 295 801 q 252 758 295 798 l 178 758 q 165 771 175 758 l 165 774 q 208 817 165 777 z "},"±":{"ha":547,"x_min":0,"x_max":472,"o":"m 217 790 q 298 709 220 790 l 298 551 q 293 546 298 546 l 195 546 q 190 551 190 546 l 190 763 q 217 790 190 766 m 27 519 l 445 519 q 472 492 448 519 q 391 410 472 488 l 81 410 q 0 492 78 410 q 27 519 0 495 m 195 383 l 293 383 q 298 378 298 382 l 298 166 q 271 139 298 163 q 190 220 268 139 l 190 378 q 195 383 191 383 m 60 111 l 380 111 q 435 57 384 111 l 435 54 q 380 0 435 51 l 60 0 q 6 54 57 0 l 6 57 q 60 111 6 60 z "},"²":{"ha":688,"x_min":0,"x_max":0,"o":""},"³":{"ha":688,"x_min":0,"x_max":0,"o":""},"´":{"ha":694,"x_min":228,"x_max":407,"o":"m 396 1040 q 407 1002 402 1031 q 290 806 302 816 q 266 804 275 804 l 260 804 q 228 912 251 804 q 298 1015 281 1015 l 396 1040 z "},"µ":{"ha":800,"x_min":0,"x_max":0,"o":""},"¶":{"ha":694,"x_min":0,"x_max":0,"o":""},"·":{"ha":345,"x_min":0,"x_max":0,"o":""},"¸":{"ha":694,"x_min":0,"x_max":0,"o":""},"¹":{"ha":688,"x_min":0,"x_max":0,"o":""},"º":{"ha":487,"x_min":0,"x_max":0,"o":""},"»":{"ha":640,"x_min":0,"x_max":0,"o":""},"¼":{"ha":1158,"x_min":0,"x_max":0,"o":""},"½":{"ha":1332,"x_min":0,"x_max":0,"o":""},"¾":{"ha":1158,"x_min":0,"x_max":0,"o":""},"¿":{"ha":544,"x_min":0,"x_max":494,"o":"m 467 0 l 81 0 q 54 27 78 0 q 136 109 54 31 l 412 109 q 494 27 416 109 q 467 0 494 24 m 27 30 q 0 57 24 30 l 0 442 q 27 469 0 446 q 109 388 31 469 l 109 111 q 27 30 109 108 m 429 426 l 109 426 q 54 480 105 426 l 54 483 q 109 537 54 486 l 429 537 q 483 483 432 537 l 483 480 q 429 426 483 477 m 439 586 q 382 643 436 586 l 382 779 q 439 836 382 782 q 494 781 443 836 l 494 640 q 439 586 494 637 m 442 863 l 439 863 q 388 914 436 863 l 388 917 q 439 968 388 920 l 442 968 q 494 917 446 968 l 494 914 q 442 863 494 911 z "},"À":{"ha":614,"x_min":0,"x_max":545,"o":"m 81 968 l 467 968 q 494 941 470 968 q 412 860 494 938 l 136 860 q 54 941 132 860 q 81 968 54 945 m 518 941 q 545 914 522 941 l 545 529 q 518 502 545 526 q 437 583 515 502 l 437 860 q 518 941 437 863 m 27 939 q 109 857 31 939 l 109 581 q 27 499 109 577 q 0 526 24 499 l 0 911 q 27 939 0 915 m 109 543 l 429 543 q 483 488 432 543 l 483 486 q 429 431 483 482 l 109 431 q 54 486 105 431 l 54 488 q 109 543 54 492 m 27 472 q 109 391 31 472 l 109 81 q 27 0 109 78 q 0 27 24 0 l 0 445 q 27 472 0 448 m 518 472 q 545 445 522 472 l 545 27 q 518 0 545 24 q 437 81 515 0 l 437 391 q 518 472 437 394 m 262 1293 q 332 1190 279 1293 q 300 1082 309 1082 l 294 1082 q 270 1084 285 1082 q 153 1280 258 1094 q 164 1318 158 1309 l 262 1293 z "},"Á":{"ha":614,"x_min":0,"x_max":545,"o":"m 81 968 l 467 968 q 494 941 470 968 q 412 860 494 938 l 136 860 q 54 941 132 860 q 81 968 54 945 m 518 941 q 545 914 522 941 l 545 529 q 518 502 545 526 q 437 583 515 502 l 437 860 q 518 941 437 863 m 27 939 q 109 857 31 939 l 109 581 q 27 499 109 577 q 0 526 24 499 l 0 911 q 27 939 0 915 m 109 543 l 429 543 q 483 488 432 543 l 483 486 q 429 431 483 482 l 109 431 q 54 486 105 431 l 54 488 q 109 543 54 492 m 27 472 q 109 391 31 472 l 109 81 q 27 0 109 78 q 0 27 24 0 l 0 445 q 27 472 0 448 m 518 472 q 545 445 522 472 l 545 27 q 518 0 545 24 q 437 81 515 0 l 437 391 q 518 472 437 394 m 388 1318 q 399 1280 394 1309 q 282 1084 294 1094 q 258 1082 267 1082 l 252 1082 q 220 1190 243 1082 q 290 1293 273 1293 l 388 1318 z "},"Â":{"ha":614,"x_min":0,"x_max":545,"o":"m 81 968 l 467 968 q 494 941 470 968 q 412 860 494 938 l 136 860 q 54 941 132 860 q 81 968 54 945 m 518 941 q 545 914 522 941 l 545 529 q 518 502 545 526 q 437 583 515 502 l 437 860 q 518 941 437 863 m 27 939 q 109 857 31 939 l 109 581 q 27 499 109 577 q 0 526 24 499 l 0 911 q 27 939 0 915 m 109 543 l 429 543 q 483 488 432 543 l 483 486 q 429 431 483 482 l 109 431 q 54 486 105 431 l 54 488 q 109 543 54 492 m 27 472 q 109 391 31 472 l 109 81 q 27 0 109 78 q 0 27 24 0 l 0 445 q 27 472 0 448 m 518 472 q 545 445 522 472 l 545 27 q 518 0 545 24 q 437 81 515 0 l 437 391 q 518 472 437 394 m 262 1311 q 273 1273 268 1302 q 156 1078 168 1087 q 132 1075 141 1075 l 126 1075 q 94 1183 117 1075 q 164 1286 147 1286 l 262 1311 m 381 1284 q 452 1181 398 1284 q 419 1072 429 1072 l 414 1072 q 389 1075 404 1072 q 273 1270 378 1084 q 283 1308 277 1299 l 381 1284 z "},"Ã":{"ha":614,"x_min":-12,"x_max":557,"o":"m 81 968 l 467 968 q 494 941 470 968 q 412 860 494 938 l 136 860 q 54 941 132 860 q 81 968 54 945 m 518 941 q 545 914 522 941 l 545 529 q 518 502 545 526 q 437 583 515 502 l 437 860 q 518 941 437 863 m 27 939 q 109 857 31 939 l 109 581 q 27 499 109 577 q 0 526 24 499 l 0 911 q 27 939 0 915 m 109 543 l 429 543 q 483 488 432 543 l 483 486 q 429 431 483 482 l 109 431 q 54 486 105 431 l 54 488 q 109 543 54 492 m 27 472 q 109 391 31 472 l 109 81 q 27 0 109 78 q 0 27 24 0 l 0 445 q 27 472 0 448 m 518 472 q 545 445 522 472 l 545 27 q 518 0 545 24 q 437 81 515 0 l 437 391 q 518 472 437 394 m 156 1319 q 167 1281 162 1310 q 50 1086 62 1095 q 26 1083 35 1083 l 20 1083 q -12 1192 11 1083 q 58 1295 41 1295 l 156 1319 m 194 1319 q 308 1281 308 1292 q 359 1189 359 1192 q 327 1083 336 1083 l 321 1083 q 281 1105 290 1083 q 180 1286 180 1278 q 194 1319 187 1319 m 547 1319 q 557 1281 553 1310 q 441 1086 452 1095 q 416 1083 426 1083 l 411 1083 q 378 1192 401 1083 q 449 1295 432 1295 l 547 1319 z "},"Ä":{"ha":614,"x_min":0,"x_max":568,"o":"m 81 968 l 467 968 q 494 941 470 968 q 412 860 494 938 l 136 860 q 54 941 132 860 q 81 968 54 945 m 518 941 q 545 914 522 941 l 545 529 q 518 502 545 526 q 437 583 515 502 l 437 860 q 518 941 437 863 m 27 939 q 109 857 31 939 l 109 581 q 27 499 109 577 q 0 526 24 499 l 0 911 q 27 939 0 915 m 109 543 l 429 543 q 483 488 432 543 l 483 486 q 429 431 483 482 l 109 431 q 54 486 105 431 l 54 488 q 109 543 54 492 m 27 472 q 109 391 31 472 l 109 81 q 27 0 109 78 q 0 27 24 0 l 0 445 q 27 472 0 448 m 518 472 q 545 445 522 472 l 545 27 q 518 0 545 24 q 437 81 515 0 l 437 391 q 518 472 437 394 m 97 1213 l 102 1213 q 168 1148 106 1213 l 168 1143 q 102 1078 168 1139 l 97 1078 q 32 1143 93 1078 l 32 1148 q 97 1213 32 1152 m 497 1211 l 503 1211 q 568 1145 507 1211 l 568 1140 q 503 1075 568 1136 l 497 1075 q 432 1140 493 1075 l 432 1145 q 497 1211 432 1149 z "},"Å":{"ha":614,"x_min":0,"x_max":545,"o":"m 81 968 l 467 968 q 494 941 470 968 q 412 860 494 938 l 136 860 q 54 941 132 860 q 81 968 54 945 m 518 941 q 545 914 522 941 l 545 529 q 518 502 545 526 q 437 583 515 502 l 437 860 q 518 941 437 863 m 27 939 q 109 857 31 939 l 109 581 q 27 499 109 577 q 0 526 24 499 l 0 911 q 27 939 0 915 m 109 543 l 429 543 q 483 488 432 543 l 483 486 q 429 431 483 482 l 109 431 q 54 486 105 431 l 54 488 q 109 543 54 492 m 27 472 q 109 391 31 472 l 109 81 q 27 0 109 78 q 0 27 24 0 l 0 445 q 27 472 0 448 m 518 472 q 545 445 522 472 l 545 27 q 518 0 545 24 q 437 81 515 0 l 437 391 q 518 472 437 394 m 270 1217 l 275 1217 q 340 1152 279 1217 l 340 1147 q 275 1082 340 1143 l 270 1082 q 205 1147 266 1082 l 205 1152 q 270 1217 205 1156 z "},"Æ":{"ha":1091,"x_min":0,"x_max":996,"o":"m 81 968 l 467 968 q 494 941 470 968 q 412 860 494 938 l 136 860 q 54 941 132 860 q 81 968 54 945 m 518 941 q 545 914 522 941 l 545 529 q 518 502 545 526 q 437 583 515 502 l 437 860 q 518 941 437 863 m 27 939 q 109 857 31 939 l 109 581 q 27 499 109 577 q 0 526 24 499 l 0 911 q 27 939 0 915 m 109 543 l 429 543 q 483 488 432 543 l 483 486 q 429 431 483 482 l 109 431 q 54 486 105 431 l 54 488 q 109 543 54 492 m 27 472 q 109 391 31 472 l 109 81 q 27 0 109 78 q 0 27 24 0 l 0 445 q 27 472 0 448 m 518 472 q 545 445 522 472 l 545 27 q 518 0 545 24 q 437 81 515 0 l 437 391 q 518 472 437 394 m 583 968 l 968 968 q 996 941 972 968 q 914 860 996 938 l 637 860 q 556 941 634 860 q 583 968 556 945 m 610 543 l 930 543 q 985 488 934 543 l 985 486 q 930 431 985 482 l 610 431 q 556 486 607 431 l 556 488 q 610 543 556 492 m 635 109 l 911 109 q 993 27 915 109 q 966 0 993 24 l 581 0 q 553 27 577 0 q 635 109 553 31 z "},"Ç":{"ha":949,"x_min":0,"x_max":0,"o":""},"È":{"ha":614,"x_min":0,"x_max":494,"o":"m 81 968 l 467 968 q 494 941 470 968 q 412 860 494 938 l 136 860 q 54 941 132 860 q 81 968 54 945 m 27 939 q 109 857 31 939 l 109 581 q 27 499 109 577 q 0 526 24 499 l 0 911 q 27 939 0 915 m 109 543 l 429 543 q 483 488 432 543 l 483 486 q 429 431 483 482 l 109 431 q 54 486 105 431 l 54 488 q 109 543 54 492 m 27 472 q 109 391 31 472 l 109 114 q 27 33 109 111 q 0 60 24 33 l 0 445 q 27 472 0 448 m 133 109 l 410 109 q 491 27 413 109 q 464 0 491 24 l 79 0 q 52 27 75 0 q 133 109 52 31 m 236 1293 q 307 1190 253 1293 q 274 1082 283 1082 l 269 1082 q 244 1084 259 1082 q 127 1280 233 1094 q 138 1318 132 1309 l 236 1293 z "},"É":{"ha":614,"x_min":0,"x_max":494,"o":"m 81 968 l 467 968 q 494 941 470 968 q 412 860 494 938 l 136 860 q 54 941 132 860 q 81 968 54 945 m 27 939 q 109 857 31 939 l 109 581 q 27 499 109 577 q 0 526 24 499 l 0 911 q 27 939 0 915 m 109 543 l 429 543 q 483 488 432 543 l 483 486 q 429 431 483 482 l 109 431 q 54 486 105 431 l 54 488 q 109 543 54 492 m 27 472 q 109 391 31 472 l 109 114 q 27 33 109 111 q 0 60 24 33 l 0 445 q 27 472 0 448 m 133 109 l 410 109 q 491 27 413 109 q 464 0 491 24 l 79 0 q 52 27 75 0 q 133 109 52 31 m 362 1318 q 373 1280 368 1309 q 256 1084 268 1094 q 232 1082 241 1082 l 227 1082 q 194 1190 217 1082 q 264 1293 248 1293 l 362 1318 z "},"Ê":{"ha":614,"x_min":0,"x_max":494,"o":"m 81 968 l 467 968 q 494 941 470 968 q 412 860 494 938 l 136 860 q 54 941 132 860 q 81 968 54 945 m 27 939 q 109 857 31 939 l 109 581 q 27 499 109 577 q 0 526 24 499 l 0 911 q 27 939 0 915 m 109 543 l 429 543 q 483 488 432 543 l 483 486 q 429 431 483 482 l 109 431 q 54 486 105 431 l 54 488 q 109 543 54 492 m 27 472 q 109 391 31 472 l 109 114 q 27 33 109 111 q 0 60 24 33 l 0 445 q 27 472 0 448 m 133 109 l 410 109 q 491 27 413 109 q 464 0 491 24 l 79 0 q 52 27 75 0 q 133 109 52 31 m 236 1311 q 247 1273 242 1302 q 130 1078 142 1087 q 106 1075 115 1075 l 100 1075 q 68 1183 91 1075 q 138 1286 121 1286 l 236 1311 m 355 1284 q 426 1181 372 1284 q 393 1072 403 1072 l 388 1072 q 363 1075 378 1072 q 247 1270 352 1084 q 258 1308 252 1299 l 355 1284 z "},"Ë":{"ha":614,"x_min":-21,"x_max":521,"o":"m 60 968 l 446 968 q 473 941 449 968 q 391 860 473 938 l 115 860 q 33 941 111 860 q 60 968 33 945 m 6 939 q 87 857 9 939 l 87 581 q 6 499 87 577 q -21 526 3 499 l -21 911 q 6 939 -21 915 m 87 543 l 408 543 q 462 488 411 543 l 462 486 q 408 431 462 482 l 87 431 q 33 486 84 431 l 33 488 q 87 543 33 492 m 6 472 q 87 391 9 472 l 87 114 q 6 33 87 111 q -21 60 3 33 l -21 445 q 6 472 -21 448 m 112 109 l 389 109 q 470 27 392 109 q 443 0 470 24 l 58 0 q 31 27 54 0 q 112 109 31 31 m 50 1213 l 56 1213 q 121 1148 60 1213 l 121 1143 q 56 1078 121 1139 l 50 1078 q -15 1143 46 1078 l -15 1148 q 50 1213 -15 1152 m 450 1211 l 456 1211 q 521 1145 460 1211 l 521 1140 q 456 1075 521 1136 l 450 1075 q 385 1140 446 1075 l 385 1145 q 450 1211 385 1149 z "},"Ì":{"ha":189,"x_min":-65,"x_max":114,"o":"m 27 968 q 109 887 31 968 l 109 578 q 27 496 109 574 q 0 524 24 496 l 0 941 q 27 968 0 945 m 81 472 q 109 445 85 472 l 109 27 q 81 0 109 24 q 0 81 78 0 l 0 391 q 81 472 0 394 m 43 1293 q 114 1190 60 1293 q 81 1082 91 1082 l 76 1082 q 52 1084 66 1082 q -65 1280 40 1094 q -54 1318 -60 1309 l 43 1293 z "},"Í":{"ha":189,"x_min":-5,"x_max":175,"o":"m 22 968 q 103 887 25 968 l 103 578 q 22 496 103 574 q -5 524 18 496 l -5 941 q 22 968 -5 945 m 76 472 q 103 445 79 472 l 103 27 q 76 0 103 24 q -5 81 73 0 l -5 391 q 76 472 -5 394 m 164 1318 q 175 1280 170 1309 q 58 1084 70 1094 q 34 1082 43 1082 l 28 1082 q -4 1190 19 1082 q 66 1293 50 1293 l 164 1318 z "},"Î":{"ha":189,"x_min":-125,"x_max":233,"o":"m 27 968 q 109 887 31 968 l 109 578 q 27 496 109 574 q 0 524 24 496 l 0 941 q 27 968 0 945 m 81 472 q 109 445 85 472 l 109 27 q 81 0 109 24 q 0 81 78 0 l 0 391 q 81 472 0 394 m 43 1311 q 54 1273 50 1302 q -62 1078 -51 1087 q -87 1075 -77 1075 l -92 1075 q -125 1183 -102 1075 q -54 1286 -71 1286 l 43 1311 m 163 1284 q 233 1181 180 1284 q 201 1072 210 1072 l 195 1072 q 171 1075 186 1072 q 54 1270 159 1084 q 65 1308 59 1299 l 163 1284 z "},"Ï":{"ha":189,"x_min":-214,"x_max":322,"o":"m 0 968 q 81 887 3 968 l 81 578 q 0 496 81 574 q -27 524 -3 496 l -27 941 q 0 968 -27 945 m 54 472 q 81 445 58 472 l 81 27 q 54 0 81 24 q -27 81 51 0 l -27 391 q 54 472 -27 394 m -149 1213 l -143 1213 q -78 1148 -139 1213 l -78 1143 q -143 1078 -78 1139 l -149 1078 q -214 1143 -153 1078 l -214 1148 q -149 1213 -214 1152 m 252 1211 l 257 1211 q 322 1145 261 1211 l 322 1140 q 257 1075 322 1136 l 252 1075 q 186 1140 248 1075 l 186 1145 q 252 1211 186 1149 z "},"Ð":{"ha":1029,"x_min":0,"x_max":0,"o":""},"Ñ":{"ha":614,"x_min":-12,"x_max":557,"o":"m 27 968 q 109 887 31 968 l 109 578 q 27 496 109 574 q 0 524 24 496 l 0 941 q 27 968 0 945 m 518 968 q 545 941 522 968 l 545 524 q 518 496 545 520 q 437 578 515 496 l 437 887 q 518 968 437 890 m 138 857 l 171 857 q 350 681 223 814 q 407 627 357 681 l 407 518 q 401 513 407 513 l 369 513 q 366 515 366 513 l 361 513 q 133 743 245 635 l 133 852 q 138 857 134 857 m 27 472 q 109 391 31 472 l 109 81 q 27 0 109 78 q 0 27 24 0 l 0 445 q 27 472 0 448 m 518 472 q 545 445 522 472 l 545 27 q 518 0 545 24 q 437 81 515 0 l 437 391 q 518 472 437 394 m 156 1319 q 167 1281 162 1310 q 50 1086 62 1095 q 26 1083 35 1083 l 20 1083 q -12 1192 11 1083 q 58 1295 41 1295 l 156 1319 m 194 1319 q 308 1281 308 1292 q 359 1189 359 1192 q 327 1083 336 1083 l 321 1083 q 281 1105 290 1083 q 180 1286 180 1278 q 194 1319 187 1319 m 547 1319 q 557 1281 553 1310 q 441 1086 452 1095 q 416 1083 426 1083 l 411 1083 q 378 1192 401 1083 q 449 1295 432 1295 l 547 1319 z "},"Ò":{"ha":614,"x_min":0,"x_max":545,"o":"m 81 968 l 467 968 q 494 941 470 968 q 412 860 494 938 l 136 860 q 54 941 132 860 q 81 968 54 945 m 518 941 q 545 914 522 941 l 545 529 q 518 502 545 526 q 437 583 515 502 l 437 860 q 518 941 437 863 m 27 939 q 109 857 31 939 l 109 581 q 27 499 109 577 q 0 526 24 499 l 0 911 q 27 939 0 915 m 27 472 q 109 391 31 472 l 109 114 q 27 33 109 111 q 0 60 24 33 l 0 445 q 27 472 0 448 m 518 469 q 545 442 522 469 l 545 57 q 518 30 545 54 q 437 111 515 30 l 437 388 q 518 469 437 391 m 133 109 l 410 109 q 491 27 413 109 q 464 0 491 24 l 79 0 q 52 27 75 0 q 133 109 52 31 m 262 1293 q 332 1190 279 1293 q 300 1082 309 1082 l 294 1082 q 270 1084 285 1082 q 153 1280 258 1094 q 164 1318 158 1309 l 262 1293 z "},"Ó":{"ha":614,"x_min":0,"x_max":545,"o":"m 81 968 l 467 968 q 494 941 470 968 q 412 860 494 938 l 136 860 q 54 941 132 860 q 81 968 54 945 m 518 941 q 545 914 522 941 l 545 529 q 518 502 545 526 q 437 583 515 502 l 437 860 q 518 941 437 863 m 27 939 q 109 857 31 939 l 109 581 q 27 499 109 577 q 0 526 24 499 l 0 911 q 27 939 0 915 m 27 472 q 109 391 31 472 l 109 114 q 27 33 109 111 q 0 60 24 33 l 0 445 q 27 472 0 448 m 518 469 q 545 442 522 469 l 545 57 q 518 30 545 54 q 437 111 515 30 l 437 388 q 518 469 437 391 m 133 109 l 410 109 q 491 27 413 109 q 464 0 491 24 l 79 0 q 52 27 75 0 q 133 109 52 31 m 388 1318 q 399 1280 394 1309 q 282 1084 294 1094 q 258 1082 267 1082 l 252 1082 q 220 1190 243 1082 q 290 1293 273 1293 l 388 1318 z "},"Ô":{"ha":614,"x_min":0,"x_max":545,"o":"m 81 968 l 467 968 q 494 941 470 968 q 412 860 494 938 l 136 860 q 54 941 132 860 q 81 968 54 945 m 518 941 q 545 914 522 941 l 545 529 q 518 502 545 526 q 437 583 515 502 l 437 860 q 518 941 437 863 m 27 939 q 109 857 31 939 l 109 581 q 27 499 109 577 q 0 526 24 499 l 0 911 q 27 939 0 915 m 27 472 q 109 391 31 472 l 109 114 q 27 33 109 111 q 0 60 24 33 l 0 445 q 27 472 0 448 m 518 469 q 545 442 522 469 l 545 57 q 518 30 545 54 q 437 111 515 30 l 437 388 q 518 469 437 391 m 133 109 l 410 109 q 491 27 413 109 q 464 0 491 24 l 79 0 q 52 27 75 0 q 133 109 52 31 m 262 1311 q 273 1273 268 1302 q 156 1078 168 1087 q 132 1075 141 1075 l 126 1075 q 94 1183 117 1075 q 164 1286 147 1286 l 262 1311 m 381 1284 q 452 1181 398 1284 q 419 1072 429 1072 l 414 1072 q 389 1075 404 1072 q 273 1270 378 1084 q 283 1308 277 1299 l 381 1284 z "},"Õ":{"ha":614,"x_min":-12,"x_max":557,"o":"m 81 968 l 467 968 q 494 941 470 968 q 412 860 494 938 l 136 860 q 54 941 132 860 q 81 968 54 945 m 518 941 q 545 914 522 941 l 545 529 q 518 502 545 526 q 437 583 515 502 l 437 860 q 518 941 437 863 m 27 939 q 109 857 31 939 l 109 581 q 27 499 109 577 q 0 526 24 499 l 0 911 q 27 939 0 915 m 27 472 q 109 391 31 472 l 109 114 q 27 33 109 111 q 0 60 24 33 l 0 445 q 27 472 0 448 m 518 469 q 545 442 522 469 l 545 57 q 518 30 545 54 q 437 111 515 30 l 437 388 q 518 469 437 391 m 133 109 l 410 109 q 491 27 413 109 q 464 0 491 24 l 79 0 q 52 27 75 0 q 133 109 52 31 m 156 1319 q 167 1281 162 1310 q 50 1086 62 1095 q 26 1083 35 1083 l 20 1083 q -12 1192 11 1083 q 58 1295 41 1295 l 156 1319 m 194 1319 q 308 1281 308 1292 q 359 1189 359 1192 q 327 1083 336 1083 l 321 1083 q 281 1105 290 1083 q 180 1286 180 1278 q 194 1319 187 1319 m 547 1319 q 557 1281 553 1310 q 441 1086 452 1095 q 416 1083 426 1083 l 411 1083 q 378 1192 401 1083 q 449 1295 432 1295 l 547 1319 z "},"Ö":{"ha":614,"x_min":0,"x_max":568,"o":"m 81 968 l 467 968 q 494 941 470 968 q 412 860 494 938 l 136 860 q 54 941 132 860 q 81 968 54 945 m 518 941 q 545 914 522 941 l 545 529 q 518 502 545 526 q 437 583 515 502 l 437 860 q 518 941 437 863 m 27 939 q 109 857 31 939 l 109 581 q 27 499 109 577 q 0 526 24 499 l 0 911 q 27 939 0 915 m 27 472 q 109 391 31 472 l 109 114 q 27 33 109 111 q 0 60 24 33 l 0 445 q 27 472 0 448 m 518 469 q 545 442 522 469 l 545 57 q 518 30 545 54 q 437 111 515 30 l 437 388 q 518 469 437 391 m 133 109 l 410 109 q 491 27 413 109 q 464 0 491 24 l 79 0 q 52 27 75 0 q 133 109 52 31 m 97 1213 l 102 1213 q 168 1148 106 1213 l 168 1143 q 102 1078 168 1139 l 97 1078 q 32 1143 93 1078 l 32 1148 q 97 1213 32 1152 m 497 1211 l 503 1211 q 568 1145 507 1211 l 568 1140 q 503 1075 568 1136 l 497 1075 q 432 1140 493 1075 l 432 1145 q 497 1211 432 1149 z "},"×":{"ha":688,"x_min":0,"x_max":0,"o":""},"Ø":{"ha":1095,"x_min":0,"x_max":0,"o":""},"Ù":{"ha":614,"x_min":0,"x_max":545,"o":"m 27 968 q 109 887 31 968 l 109 578 q 27 496 109 574 q 0 524 24 496 l 0 941 q 27 968 0 945 m 518 968 q 545 941 522 968 l 545 524 q 518 496 545 520 q 437 578 515 496 l 437 887 q 518 968 437 890 m 27 469 q 109 388 31 469 l 109 111 q 27 30 109 108 q 0 57 24 30 l 0 442 q 27 469 0 446 m 518 467 q 545 439 522 467 l 545 54 q 518 27 545 51 q 437 109 515 27 l 437 385 q 518 467 437 389 m 136 109 l 412 109 q 494 27 416 109 q 467 0 494 24 l 81 0 q 54 27 78 0 q 136 109 54 31 m 262 1293 q 332 1190 279 1293 q 300 1082 309 1082 l 294 1082 q 270 1084 285 1082 q 153 1280 258 1094 q 164 1318 158 1309 l 262 1293 z "},"Ú":{"ha":614,"x_min":0,"x_max":545,"o":"m 27 968 q 109 887 31 968 l 109 578 q 27 496 109 574 q 0 524 24 496 l 0 941 q 27 968 0 945 m 518 968 q 545 941 522 968 l 545 524 q 518 496 545 520 q 437 578 515 496 l 437 887 q 518 968 437 890 m 27 469 q 109 388 31 469 l 109 111 q 27 30 109 108 q 0 57 24 30 l 0 442 q 27 469 0 446 m 518 467 q 545 439 522 467 l 545 54 q 518 27 545 51 q 437 109 515 27 l 437 385 q 518 467 437 389 m 136 109 l 412 109 q 494 27 416 109 q 467 0 494 24 l 81 0 q 54 27 78 0 q 136 109 54 31 m 388 1318 q 399 1280 394 1309 q 282 1084 294 1094 q 258 1082 267 1082 l 252 1082 q 220 1190 243 1082 q 290 1293 273 1293 l 388 1318 z "},"Û":{"ha":614,"x_min":0,"x_max":545,"o":"m 27 968 q 109 887 31 968 l 109 578 q 27 496 109 574 q 0 524 24 496 l 0 941 q 27 968 0 945 m 518 968 q 545 941 522 968 l 545 524 q 518 496 545 520 q 437 578 515 496 l 437 887 q 518 968 437 890 m 27 469 q 109 388 31 469 l 109 111 q 27 30 109 108 q 0 57 24 30 l 0 442 q 27 469 0 446 m 518 467 q 545 439 522 467 l 545 54 q 518 27 545 51 q 437 109 515 27 l 437 385 q 518 467 437 389 m 136 109 l 412 109 q 494 27 416 109 q 467 0 494 24 l 81 0 q 54 27 78 0 q 136 109 54 31 m 262 1311 q 273 1273 268 1302 q 156 1078 168 1087 q 132 1075 141 1075 l 126 1075 q 94 1183 117 1075 q 164 1286 147 1286 l 262 1311 m 381 1284 q 452 1181 398 1284 q 419 1072 429 1072 l 414 1072 q 389 1075 404 1072 q 273 1270 378 1084 q 283 1308 277 1299 l 381 1284 z "},"Ü":{"ha":614,"x_min":0,"x_max":568,"o":"m 27 968 q 109 887 31 968 l 109 578 q 27 496 109 574 q 0 524 24 496 l 0 941 q 27 968 0 945 m 518 968 q 545 941 522 968 l 545 524 q 518 496 545 520 q 437 578 515 496 l 437 887 q 518 968 437 890 m 27 469 q 109 388 31 469 l 109 111 q 27 30 109 108 q 0 57 24 30 l 0 442 q 27 469 0 446 m 518 467 q 545 439 522 467 l 545 54 q 518 27 545 51 q 437 109 515 27 l 437 385 q 518 467 437 389 m 136 109 l 412 109 q 494 27 416 109 q 467 0 494 24 l 81 0 q 54 27 78 0 q 136 109 54 31 m 97 1213 l 102 1213 q 168 1148 106 1213 l 168 1143 q 102 1078 168 1139 l 97 1078 q 32 1143 93 1078 l 32 1148 q 97 1213 32 1152 m 497 1211 l 503 1211 q 568 1145 507 1211 l 568 1140 q 503 1075 568 1136 l 497 1075 q 432 1140 493 1075 l 432 1145 q 497 1211 432 1149 z "},"Ý":{"ha":614,"x_min":0,"x_max":0,"o":""},"Þ":{"ha":760,"x_min":0,"x_max":0,"o":""},"ß":{"ha":848,"x_min":0,"x_max":0,"o":""},"à":{"ha":614,"x_min":0,"x_max":545,"o":"m 81 968 l 467 968 q 494 941 470 968 q 412 860 494 938 l 136 860 q 54 941 132 860 q 81 968 54 945 m 518 941 q 545 914 522 941 l 545 529 q 518 502 545 526 q 437 583 515 502 l 437 860 q 518 941 437 863 m 27 939 q 109 857 31 939 l 109 581 q 27 499 109 577 q 0 526 24 499 l 0 911 q 27 939 0 915 m 109 543 l 429 543 q 483 488 432 543 l 483 486 q 429 431 483 482 l 109 431 q 54 486 105 431 l 54 488 q 109 543 54 492 m 27 472 q 109 391 31 472 l 109 81 q 27 0 109 78 q 0 27 24 0 l 0 445 q 27 472 0 448 m 518 472 q 545 445 522 472 l 545 27 q 518 0 545 24 q 437 81 515 0 l 437 391 q 518 472 437 394 m 262 1293 q 332 1190 279 1293 q 300 1082 309 1082 l 294 1082 q 270 1084 285 1082 q 153 1280 258 1094 q 164 1318 158 1309 l 262 1293 z "},"á":{"ha":614,"x_min":0,"x_max":545,"o":"m 81 968 l 467 968 q 494 941 470 968 q 412 860 494 938 l 136 860 q 54 941 132 860 q 81 968 54 945 m 518 941 q 545 914 522 941 l 545 529 q 518 502 545 526 q 437 583 515 502 l 437 860 q 518 941 437 863 m 27 939 q 109 857 31 939 l 109 581 q 27 499 109 577 q 0 526 24 499 l 0 911 q 27 939 0 915 m 109 543 l 429 543 q 483 488 432 543 l 483 486 q 429 431 483 482 l 109 431 q 54 486 105 431 l 54 488 q 109 543 54 492 m 27 472 q 109 391 31 472 l 109 81 q 27 0 109 78 q 0 27 24 0 l 0 445 q 27 472 0 448 m 518 472 q 545 445 522 472 l 545 27 q 518 0 545 24 q 437 81 515 0 l 437 391 q 518 472 437 394 m 388 1318 q 399 1280 394 1309 q 282 1084 294 1094 q 258 1082 267 1082 l 252 1082 q 220 1190 243 1082 q 290 1293 273 1293 l 388 1318 z "},"â":{"ha":614,"x_min":0,"x_max":545,"o":"m 81 968 l 467 968 q 494 941 470 968 q 412 860 494 938 l 136 860 q 54 941 132 860 q 81 968 54 945 m 518 941 q 545 914 522 941 l 545 529 q 518 502 545 526 q 437 583 515 502 l 437 860 q 518 941 437 863 m 27 939 q 109 857 31 939 l 109 581 q 27 499 109 577 q 0 526 24 499 l 0 911 q 27 939 0 915 m 109 543 l 429 543 q 483 488 432 543 l 483 486 q 429 431 483 482 l 109 431 q 54 486 105 431 l 54 488 q 109 543 54 492 m 27 472 q 109 391 31 472 l 109 81 q 27 0 109 78 q 0 27 24 0 l 0 445 q 27 472 0 448 m 518 472 q 545 445 522 472 l 545 27 q 518 0 545 24 q 437 81 515 0 l 437 391 q 518 472 437 394 m 262 1311 q 273 1273 268 1302 q 156 1078 168 1087 q 132 1075 141 1075 l 126 1075 q 94 1183 117 1075 q 164 1286 147 1286 l 262 1311 m 381 1284 q 452 1181 398 1284 q 419 1072 429 1072 l 414 1072 q 389 1075 404 1072 q 273 1270 378 1084 q 283 1308 277 1299 l 381 1284 z "},"ã":{"ha":614,"x_min":-12,"x_max":557,"o":"m 81 968 l 467 968 q 494 941 470 968 q 412 860 494 938 l 136 860 q 54 941 132 860 q 81 968 54 945 m 518 941 q 545 914 522 941 l 545 529 q 518 502 545 526 q 437 583 515 502 l 437 860 q 518 941 437 863 m 27 939 q 109 857 31 939 l 109 581 q 27 499 109 577 q 0 526 24 499 l 0 911 q 27 939 0 915 m 109 543 l 429 543 q 483 488 432 543 l 483 486 q 429 431 483 482 l 109 431 q 54 486 105 431 l 54 488 q 109 543 54 492 m 27 472 q 109 391 31 472 l 109 81 q 27 0 109 78 q 0 27 24 0 l 0 445 q 27 472 0 448 m 518 472 q 545 445 522 472 l 545 27 q 518 0 545 24 q 437 81 515 0 l 437 391 q 518 472 437 394 m 156 1319 q 167 1281 162 1310 q 50 1086 62 1095 q 26 1083 35 1083 l 20 1083 q -12 1192 11 1083 q 58 1295 41 1295 l 156 1319 m 194 1319 q 308 1281 308 1292 q 359 1189 359 1192 q 327 1083 336 1083 l 321 1083 q 281 1105 290 1083 q 180 1286 180 1278 q 194 1319 187 1319 m 547 1319 q 557 1281 553 1310 q 441 1086 452 1095 q 416 1083 426 1083 l 411 1083 q 378 1192 401 1083 q 449 1295 432 1295 l 547 1319 z "},"ä":{"ha":614,"x_min":0,"x_max":568,"o":"m 81 968 l 467 968 q 494 941 470 968 q 412 860 494 938 l 136 860 q 54 941 132 860 q 81 968 54 945 m 518 941 q 545 914 522 941 l 545 529 q 518 502 545 526 q 437 583 515 502 l 437 860 q 518 941 437 863 m 27 939 q 109 857 31 939 l 109 581 q 27 499 109 577 q 0 526 24 499 l 0 911 q 27 939 0 915 m 109 543 l 429 543 q 483 488 432 543 l 483 486 q 429 431 483 482 l 109 431 q 54 486 105 431 l 54 488 q 109 543 54 492 m 27 472 q 109 391 31 472 l 109 81 q 27 0 109 78 q 0 27 24 0 l 0 445 q 27 472 0 448 m 518 472 q 545 445 522 472 l 545 27 q 518 0 545 24 q 437 81 515 0 l 437 391 q 518 472 437 394 m 97 1213 l 102 1213 q 168 1148 106 1213 l 168 1143 q 102 1078 168 1139 l 97 1078 q 32 1143 93 1078 l 32 1148 q 97 1213 32 1152 m 497 1211 l 503 1211 q 568 1145 507 1211 l 568 1140 q 503 1075 568 1136 l 497 1075 q 432 1140 493 1075 l 432 1145 q 497 1211 432 1149 z "},"å":{"ha":614,"x_min":0,"x_max":545,"o":"m 81 968 l 467 968 q 494 941 470 968 q 412 860 494 938 l 136 860 q 54 941 132 860 q 81 968 54 945 m 518 941 q 545 914 522 941 l 545 529 q 518 502 545 526 q 437 583 515 502 l 437 860 q 518 941 437 863 m 27 939 q 109 857 31 939 l 109 581 q 27 499 109 577 q 0 526 24 499 l 0 911 q 27 939 0 915 m 109 543 l 429 543 q 483 488 432 543 l 483 486 q 429 431 483 482 l 109 431 q 54 486 105 431 l 54 488 q 109 543 54 492 m 27 472 q 109 391 31 472 l 109 81 q 27 0 109 78 q 0 27 24 0 l 0 445 q 27 472 0 448 m 518 472 q 545 445 522 472 l 545 27 q 518 0 545 24 q 437 81 515 0 l 437 391 q 518 472 437 394 m 270 1217 l 275 1217 q 340 1152 279 1217 l 340 1147 q 275 1082 340 1143 l 270 1082 q 205 1147 266 1082 l 205 1152 q 270 1217 205 1156 z "},"æ":{"ha":1086,"x_min":0,"x_max":996,"o":"m 81 968 l 467 968 q 494 941 470 968 q 412 860 494 938 l 136 860 q 54 941 132 860 q 81 968 54 945 m 518 941 q 545 914 522 941 l 545 529 q 518 502 545 526 q 437 583 515 502 l 437 860 q 518 941 437 863 m 27 939 q 109 857 31 939 l 109 581 q 27 499 109 577 q 0 526 24 499 l 0 911 q 27 939 0 915 m 109 543 l 429 543 q 483 488 432 543 l 483 486 q 429 431 483 482 l 109 431 q 54 486 105 431 l 54 488 q 109 543 54 492 m 27 472 q 109 391 31 472 l 109 81 q 27 0 109 78 q 0 27 24 0 l 0 445 q 27 472 0 448 m 518 472 q 545 445 522 472 l 545 27 q 518 0 545 24 q 437 81 515 0 l 437 391 q 518 472 437 394 m 583 968 l 968 968 q 996 941 972 968 q 914 860 996 938 l 637 860 q 556 941 634 860 q 583 968 556 945 m 610 543 l 930 543 q 985 488 934 543 l 985 486 q 930 431 985 482 l 610 431 q 556 486 607 431 l 556 488 q 610 543 556 492 m 635 109 l 911 109 q 993 27 915 109 q 966 0 993 24 l 581 0 q 553 27 577 0 q 635 109 553 31 z "},"ç":{"ha":614,"x_min":0,"x_max":0,"o":""},"è":{"ha":614,"x_min":0,"x_max":494,"o":"m 81 968 l 467 968 q 494 941 470 968 q 412 860 494 938 l 136 860 q 54 941 132 860 q 81 968 54 945 m 27 939 q 109 857 31 939 l 109 581 q 27 499 109 577 q 0 526 24 499 l 0 911 q 27 939 0 915 m 109 543 l 429 543 q 483 488 432 543 l 483 486 q 429 431 483 482 l 109 431 q 54 486 105 431 l 54 488 q 109 543 54 492 m 27 472 q 109 391 31 472 l 109 114 q 27 33 109 111 q 0 60 24 33 l 0 445 q 27 472 0 448 m 133 109 l 410 109 q 491 27 413 109 q 464 0 491 24 l 79 0 q 52 27 75 0 q 133 109 52 31 m 236 1293 q 307 1190 253 1293 q 274 1082 283 1082 l 269 1082 q 244 1084 259 1082 q 127 1280 233 1094 q 138 1318 132 1309 l 236 1293 z "},"é":{"ha":614,"x_min":0,"x_max":494,"o":"m 81 968 l 467 968 q 494 941 470 968 q 412 860 494 938 l 136 860 q 54 941 132 860 q 81 968 54 945 m 27 939 q 109 857 31 939 l 109 581 q 27 499 109 577 q 0 526 24 499 l 0 911 q 27 939 0 915 m 109 543 l 429 543 q 483 488 432 543 l 483 486 q 429 431 483 482 l 109 431 q 54 486 105 431 l 54 488 q 109 543 54 492 m 27 472 q 109 391 31 472 l 109 114 q 27 33 109 111 q 0 60 24 33 l 0 445 q 27 472 0 448 m 133 109 l 410 109 q 491 27 413 109 q 464 0 491 24 l 79 0 q 52 27 75 0 q 133 109 52 31 m 362 1318 q 373 1280 368 1309 q 256 1084 268 1094 q 232 1082 241 1082 l 227 1082 q 194 1190 217 1082 q 264 1293 248 1293 l 362 1318 z "},"ê":{"ha":614,"x_min":0,"x_max":494,"o":"m 81 968 l 467 968 q 494 941 470 968 q 412 860 494 938 l 136 860 q 54 941 132 860 q 81 968 54 945 m 27 939 q 109 857 31 939 l 109 581 q 27 499 109 577 q 0 526 24 499 l 0 911 q 27 939 0 915 m 109 543 l 429 543 q 483 488 432 543 l 483 486 q 429 431 483 482 l 109 431 q 54 486 105 431 l 54 488 q 109 543 54 492 m 27 472 q 109 391 31 472 l 109 114 q 27 33 109 111 q 0 60 24 33 l 0 445 q 27 472 0 448 m 133 109 l 410 109 q 491 27 413 109 q 464 0 491 24 l 79 0 q 52 27 75 0 q 133 109 52 31 m 236 1311 q 247 1273 242 1302 q 130 1078 142 1087 q 106 1075 115 1075 l 100 1075 q 68 1183 91 1075 q 138 1286 121 1286 l 236 1311 m 355 1284 q 426 1181 372 1284 q 393 1072 403 1072 l 388 1072 q 363 1075 378 1072 q 247 1270 352 1084 q 258 1308 252 1299 l 355 1284 z "},"ë":{"ha":614,"x_min":-21,"x_max":521,"o":"m 60 968 l 446 968 q 473 941 449 968 q 391 860 473 938 l 115 860 q 33 941 111 860 q 60 968 33 945 m 6 939 q 87 857 9 939 l 87 581 q 6 499 87 577 q -21 526 3 499 l -21 911 q 6 939 -21 915 m 87 543 l 408 543 q 462 488 411 543 l 462 486 q 408 431 462 482 l 87 431 q 33 486 84 431 l 33 488 q 87 543 33 492 m 6 472 q 87 391 9 472 l 87 114 q 6 33 87 111 q -21 60 3 33 l -21 445 q 6 472 -21 448 m 112 109 l 389 109 q 470 27 392 109 q 443 0 470 24 l 58 0 q 31 27 54 0 q 112 109 31 31 m 50 1213 l 56 1213 q 121 1148 60 1213 l 121 1143 q 56 1078 121 1139 l 50 1078 q -15 1143 46 1078 l -15 1148 q 50 1213 -15 1152 m 450 1211 l 456 1211 q 521 1145 460 1211 l 521 1140 q 456 1075 521 1136 l 450 1075 q 385 1140 446 1075 l 385 1145 q 450 1211 385 1149 z "},"ì":{"ha":189,"x_min":-65,"x_max":114,"o":"m 27 968 q 109 887 31 968 l 109 578 q 27 496 109 574 q 0 524 24 496 l 0 941 q 27 968 0 945 m 81 472 q 109 445 85 472 l 109 27 q 81 0 109 24 q 0 81 78 0 l 0 391 q 81 472 0 394 m 43 1293 q 114 1190 60 1293 q 81 1082 91 1082 l 76 1082 q 52 1084 66 1082 q -65 1280 40 1094 q -54 1318 -60 1309 l 43 1293 z "},"í":{"ha":189,"x_min":-5,"x_max":175,"o":"m 22 968 q 103 887 25 968 l 103 578 q 22 496 103 574 q -5 524 18 496 l -5 941 q 22 968 -5 945 m 76 472 q 103 445 79 472 l 103 27 q 76 0 103 24 q -5 81 73 0 l -5 391 q 76 472 -5 394 m 164 1318 q 175 1280 170 1309 q 58 1084 70 1094 q 34 1082 43 1082 l 28 1082 q -4 1190 19 1082 q 66 1293 50 1293 l 164 1318 z "},"î":{"ha":189,"x_min":-125,"x_max":233,"o":"m 27 968 q 109 887 31 968 l 109 578 q 27 496 109 574 q 0 524 24 496 l 0 941 q 27 968 0 945 m 81 472 q 109 445 85 472 l 109 27 q 81 0 109 24 q 0 81 78 0 l 0 391 q 81 472 0 394 m 43 1311 q 54 1273 50 1302 q -62 1078 -51 1087 q -87 1075 -77 1075 l -92 1075 q -125 1183 -102 1075 q -54 1286 -71 1286 l 43 1311 m 163 1284 q 233 1181 180 1284 q 201 1072 210 1072 l 195 1072 q 171 1075 186 1072 q 54 1270 159 1084 q 65 1308 59 1299 l 163 1284 z "},"ï":{"ha":189,"x_min":-214,"x_max":322,"o":"m 0 968 q 81 887 3 968 l 81 578 q 0 496 81 574 q -27 524 -3 496 l -27 941 q 0 968 -27 945 m 54 472 q 81 445 58 472 l 81 27 q 54 0 81 24 q -27 81 51 0 l -27 391 q 54 472 -27 394 m -149 1213 l -143 1213 q -78 1148 -139 1213 l -78 1143 q -143 1078 -78 1139 l -149 1078 q -214 1143 -153 1078 l -214 1148 q -149 1213 -214 1152 m 252 1211 l 257 1211 q 322 1145 261 1211 l 322 1140 q 257 1075 322 1136 l 252 1075 q 186 1140 248 1075 l 186 1145 q 252 1211 186 1149 z "},"ð":{"ha":772,"x_min":0,"x_max":0,"o":""},"ñ":{"ha":614,"x_min":-12,"x_max":557,"o":"m 27 968 q 109 887 31 968 l 109 578 q 27 496 109 574 q 0 524 24 496 l 0 941 q 27 968 0 945 m 518 968 q 545 941 522 968 l 545 524 q 518 496 545 520 q 437 578 515 496 l 437 887 q 518 968 437 890 m 138 857 l 171 857 q 350 681 223 814 q 407 627 357 681 l 407 518 q 401 513 407 513 l 369 513 q 366 515 366 513 l 361 513 q 133 743 245 635 l 133 852 q 138 857 134 857 m 27 472 q 109 391 31 472 l 109 81 q 27 0 109 78 q 0 27 24 0 l 0 445 q 27 472 0 448 m 518 472 q 545 445 522 472 l 545 27 q 518 0 545 24 q 437 81 515 0 l 437 391 q 518 472 437 394 m 156 1319 q 167 1281 162 1310 q 50 1086 62 1095 q 26 1083 35 1083 l 20 1083 q -12 1192 11 1083 q 58 1295 41 1295 l 156 1319 m 194 1319 q 308 1281 308 1292 q 359 1189 359 1192 q 327 1083 336 1083 l 321 1083 q 281 1105 290 1083 q 180 1286 180 1278 q 194 1319 187 1319 m 547 1319 q 557 1281 553 1310 q 441 1086 452 1095 q 416 1083 426 1083 l 411 1083 q 378 1192 401 1083 q 449 1295 432 1295 l 547 1319 z "},"ò":{"ha":614,"x_min":0,"x_max":545,"o":"m 81 968 l 467 968 q 494 941 470 968 q 412 860 494 938 l 136 860 q 54 941 132 860 q 81 968 54 945 m 518 941 q 545 914 522 941 l 545 529 q 518 502 545 526 q 437 583 515 502 l 437 860 q 518 941 437 863 m 27 939 q 109 857 31 939 l 109 581 q 27 499 109 577 q 0 526 24 499 l 0 911 q 27 939 0 915 m 27 472 q 109 391 31 472 l 109 114 q 27 33 109 111 q 0 60 24 33 l 0 445 q 27 472 0 448 m 518 469 q 545 442 522 469 l 545 57 q 518 30 545 54 q 437 111 515 30 l 437 388 q 518 469 437 391 m 133 109 l 410 109 q 491 27 413 109 q 464 0 491 24 l 79 0 q 52 27 75 0 q 133 109 52 31 m 262 1293 q 332 1190 279 1293 q 300 1082 309 1082 l 294 1082 q 270 1084 285 1082 q 153 1280 258 1094 q 164 1318 158 1309 l 262 1293 z "},"ó":{"ha":614,"x_min":0,"x_max":545,"o":"m 81 968 l 467 968 q 494 941 470 968 q 412 860 494 938 l 136 860 q 54 941 132 860 q 81 968 54 945 m 518 941 q 545 914 522 941 l 545 529 q 518 502 545 526 q 437 583 515 502 l 437 860 q 518 941 437 863 m 27 939 q 109 857 31 939 l 109 581 q 27 499 109 577 q 0 526 24 499 l 0 911 q 27 939 0 915 m 27 472 q 109 391 31 472 l 109 114 q 27 33 109 111 q 0 60 24 33 l 0 445 q 27 472 0 448 m 518 469 q 545 442 522 469 l 545 57 q 518 30 545 54 q 437 111 515 30 l 437 388 q 518 469 437 391 m 133 109 l 410 109 q 491 27 413 109 q 464 0 491 24 l 79 0 q 52 27 75 0 q 133 109 52 31 m 388 1318 q 399 1280 394 1309 q 282 1084 294 1094 q 258 1082 267 1082 l 252 1082 q 220 1190 243 1082 q 290 1293 273 1293 l 388 1318 z "},"ô":{"ha":614,"x_min":0,"x_max":545,"o":"m 81 968 l 467 968 q 494 941 470 968 q 412 860 494 938 l 136 860 q 54 941 132 860 q 81 968 54 945 m 518 941 q 545 914 522 941 l 545 529 q 518 502 545 526 q 437 583 515 502 l 437 860 q 518 941 437 863 m 27 939 q 109 857 31 939 l 109 581 q 27 499 109 577 q 0 526 24 499 l 0 911 q 27 939 0 915 m 27 472 q 109 391 31 472 l 109 114 q 27 33 109 111 q 0 60 24 33 l 0 445 q 27 472 0 448 m 518 469 q 545 442 522 469 l 545 57 q 518 30 545 54 q 437 111 515 30 l 437 388 q 518 469 437 391 m 133 109 l 410 109 q 491 27 413 109 q 464 0 491 24 l 79 0 q 52 27 75 0 q 133 109 52 31 m 262 1311 q 273 1273 268 1302 q 156 1078 168 1087 q 132 1075 141 1075 l 126 1075 q 94 1183 117 1075 q 164 1286 147 1286 l 262 1311 m 381 1284 q 452 1181 398 1284 q 419 1072 429 1072 l 414 1072 q 389 1075 404 1072 q 273 1270 378 1084 q 283 1308 277 1299 l 381 1284 z "},"õ":{"ha":614,"x_min":-12,"x_max":557,"o":"m 81 968 l 467 968 q 494 941 470 968 q 412 860 494 938 l 136 860 q 54 941 132 860 q 81 968 54 945 m 518 941 q 545 914 522 941 l 545 529 q 518 502 545 526 q 437 583 515 502 l 437 860 q 518 941 437 863 m 27 939 q 109 857 31 939 l 109 581 q 27 499 109 577 q 0 526 24 499 l 0 911 q 27 939 0 915 m 27 472 q 109 391 31 472 l 109 114 q 27 33 109 111 q 0 60 24 33 l 0 445 q 27 472 0 448 m 518 469 q 545 442 522 469 l 545 57 q 518 30 545 54 q 437 111 515 30 l 437 388 q 518 469 437 391 m 133 109 l 410 109 q 491 27 413 109 q 464 0 491 24 l 79 0 q 52 27 75 0 q 133 109 52 31 m 156 1319 q 167 1281 162 1310 q 50 1086 62 1095 q 26 1083 35 1083 l 20 1083 q -12 1192 11 1083 q 58 1295 41 1295 l 156 1319 m 194 1319 q 308 1281 308 1292 q 359 1189 359 1192 q 327 1083 336 1083 l 321 1083 q 281 1105 290 1083 q 180 1286 180 1278 q 194 1319 187 1319 m 547 1319 q 557 1281 553 1310 q 441 1086 452 1095 q 416 1083 426 1083 l 411 1083 q 378 1192 401 1083 q 449 1295 432 1295 l 547 1319 z "},"ö":{"ha":614,"x_min":0,"x_max":568,"o":"m 81 968 l 467 968 q 494 941 470 968 q 412 860 494 938 l 136 860 q 54 941 132 860 q 81 968 54 945 m 518 941 q 545 914 522 941 l 545 529 q 518 502 545 526 q 437 583 515 502 l 437 860 q 518 941 437 863 m 27 939 q 109 857 31 939 l 109 581 q 27 499 109 577 q 0 526 24 499 l 0 911 q 27 939 0 915 m 27 472 q 109 391 31 472 l 109 114 q 27 33 109 111 q 0 60 24 33 l 0 445 q 27 472 0 448 m 518 469 q 545 442 522 469 l 545 57 q 518 30 545 54 q 437 111 515 30 l 437 388 q 518 469 437 391 m 133 109 l 410 109 q 491 27 413 109 q 464 0 491 24 l 79 0 q 52 27 75 0 q 133 109 52 31 m 97 1213 l 102 1213 q 168 1148 106 1213 l 168 1143 q 102 1078 168 1139 l 97 1078 q 32 1143 93 1078 l 32 1148 q 97 1213 32 1152 m 497 1211 l 503 1211 q 568 1145 507 1211 l 568 1140 q 503 1075 568 1136 l 497 1075 q 432 1140 493 1075 l 432 1145 q 497 1211 432 1149 z "},"÷":{"ha":479,"x_min":6,"x_max":435,"o":"m 60 661 l 380 661 q 435 606 384 661 l 435 604 q 380 549 435 600 l 60 549 q 6 604 57 549 l 6 606 q 60 661 6 610 m 151 263 l 151 269 q 216 334 151 273 l 222 334 q 287 269 226 334 l 287 263 q 222 198 287 259 l 216 198 q 151 263 212 198 m 154 941 l 154 947 q 219 1012 154 951 l 224 1012 q 290 947 229 1012 l 290 941 q 224 876 290 937 l 219 876 q 154 941 215 876 z "},"ø":{"ha":685,"x_min":0,"x_max":0,"o":""},"ù":{"ha":614,"x_min":0,"x_max":545,"o":"m 27 968 q 109 887 31 968 l 109 578 q 27 496 109 574 q 0 524 24 496 l 0 941 q 27 968 0 945 m 518 968 q 545 941 522 968 l 545 524 q 518 496 545 520 q 437 578 515 496 l 437 887 q 518 968 437 890 m 27 469 q 109 388 31 469 l 109 111 q 27 30 109 108 q 0 57 24 30 l 0 442 q 27 469 0 446 m 518 467 q 545 439 522 467 l 545 54 q 518 27 545 51 q 437 109 515 27 l 437 385 q 518 467 437 389 m 136 109 l 412 109 q 494 27 416 109 q 467 0 494 24 l 81 0 q 54 27 78 0 q 136 109 54 31 m 262 1293 q 332 1190 279 1293 q 300 1082 309 1082 l 294 1082 q 270 1084 285 1082 q 153 1280 258 1094 q 164 1318 158 1309 l 262 1293 z "},"ú":{"ha":614,"x_min":0,"x_max":545,"o":"m 27 968 q 109 887 31 968 l 109 578 q 27 496 109 574 q 0 524 24 496 l 0 941 q 27 968 0 945 m 518 968 q 545 941 522 968 l 545 524 q 518 496 545 520 q 437 578 515 496 l 437 887 q 518 968 437 890 m 27 469 q 109 388 31 469 l 109 111 q 27 30 109 108 q 0 57 24 30 l 0 442 q 27 469 0 446 m 518 467 q 545 439 522 467 l 545 54 q 518 27 545 51 q 437 109 515 27 l 437 385 q 518 467 437 389 m 136 109 l 412 109 q 494 27 416 109 q 467 0 494 24 l 81 0 q 54 27 78 0 q 136 109 54 31 m 388 1318 q 399 1280 394 1309 q 282 1084 294 1094 q 258 1082 267 1082 l 252 1082 q 220 1190 243 1082 q 290 1293 273 1293 l 388 1318 z "},"û":{"ha":614,"x_min":0,"x_max":545,"o":"m 27 968 q 109 887 31 968 l 109 578 q 27 496 109 574 q 0 524 24 496 l 0 941 q 27 968 0 945 m 518 968 q 545 941 522 968 l 545 524 q 518 496 545 520 q 437 578 515 496 l 437 887 q 518 968 437 890 m 27 469 q 109 388 31 469 l 109 111 q 27 30 109 108 q 0 57 24 30 l 0 442 q 27 469 0 446 m 518 467 q 545 439 522 467 l 545 54 q 518 27 545 51 q 437 109 515 27 l 437 385 q 518 467 437 389 m 136 109 l 412 109 q 494 27 416 109 q 467 0 494 24 l 81 0 q 54 27 78 0 q 136 109 54 31 m 262 1311 q 273 1273 268 1302 q 156 1078 168 1087 q 132 1075 141 1075 l 126 1075 q 94 1183 117 1075 q 164 1286 147 1286 l 262 1311 m 381 1284 q 452 1181 398 1284 q 419 1072 429 1072 l 414 1072 q 389 1075 404 1072 q 273 1270 378 1084 q 283 1308 277 1299 l 381 1284 z "},"ü":{"ha":614,"x_min":0,"x_max":568,"o":"m 27 968 q 109 887 31 968 l 109 578 q 27 496 109 574 q 0 524 24 496 l 0 941 q 27 968 0 945 m 518 968 q 545 941 522 968 l 545 524 q 518 496 545 520 q 437 578 515 496 l 437 887 q 518 968 437 890 m 27 469 q 109 388 31 469 l 109 111 q 27 30 109 108 q 0 57 24 30 l 0 442 q 27 469 0 446 m 518 467 q 545 439 522 467 l 545 54 q 518 27 545 51 q 437 109 515 27 l 437 385 q 518 467 437 389 m 136 109 l 412 109 q 494 27 416 109 q 467 0 494 24 l 81 0 q 54 27 78 0 q 136 109 54 31 m 97 1213 l 102 1213 q 168 1148 106 1213 l 168 1143 q 102 1078 168 1139 l 97 1078 q 32 1143 93 1078 l 32 1148 q 97 1213 32 1152 m 497 1211 l 503 1211 q 568 1145 507 1211 l 568 1140 q 503 1075 568 1136 l 497 1075 q 432 1140 493 1075 l 432 1145 q 497 1211 432 1149 z "},"ý":{"ha":589,"x_min":0,"x_max":0,"o":""},"þ":{"ha":685,"x_min":0,"x_max":0,"o":""},"ÿ":{"ha":589,"x_min":0,"x_max":0,"o":""},"ı":{"ha":349,"x_min":0,"x_max":0,"o":""},"ˆ":{"ha":694,"x_min":133,"x_max":491,"o":"m 301 1033 q 312 995 307 1024 q 195 800 207 809 q 171 797 180 797 l 165 797 q 133 905 156 797 q 203 1008 186 1008 l 301 1033 m 420 1006 q 491 903 437 1006 q 458 794 468 794 l 453 794 q 429 797 444 794 q 312 992 417 806 q 323 1030 317 1021 l 420 1006 z "},"ˇ":{"ha":694,"x_min":0,"x_max":0,"o":""},"ˉ":{"ha":694,"x_min":0,"x_max":0,"o":""},"˘":{"ha":694,"x_min":0,"x_max":0,"o":""},"˙":{"ha":694,"x_min":0,"x_max":0,"o":""},"˚":{"ha":694,"x_min":254,"x_max":389,"o":"m 319 939 l 324 939 q 389 874 328 939 l 389 869 q 324 804 389 865 l 319 804 q 254 869 315 804 l 254 874 q 319 939 254 878 z "},"˛":{"ha":694,"x_min":0,"x_max":0,"o":""},"˜":{"ha":694,"x_min":47,"x_max":616,"o":"m 215 1041 q 226 1003 221 1032 q 109 808 121 817 q 85 805 94 805 l 79 805 q 47 913 70 805 q 117 1017 100 1017 l 215 1041 m 253 1041 q 367 1003 367 1014 q 418 911 418 914 q 386 805 395 805 l 380 805 q 340 827 349 805 q 239 1008 239 1000 q 253 1041 246 1041 m 606 1041 q 616 1003 612 1032 q 500 808 511 817 q 475 805 485 805 l 470 805 q 437 913 460 805 q 508 1017 491 1017 l 606 1041 z "},"˝":{"ha":694,"x_min":0,"x_max":0,"o":""},"–":{"ha":438,"x_min":6,"x_max":435,"o":"m 60 111 l 380 111 q 435 57 384 111 l 435 54 q 380 0 435 51 l 60 0 q 6 54 57 0 l 6 57 q 60 111 6 60 z "},"—":{"ha":438,"x_min":6,"x_max":435,"o":"m 60 111 l 380 111 q 435 57 384 111 l 435 54 q 380 0 435 51 l 60 0 q 6 54 57 0 l 6 57 q 60 111 6 60 z "},"‘":{"ha":378,"x_min":0,"x_max":0,"o":""},"’":{"ha":378,"x_min":0,"x_max":0,"o":""},"‚":{"ha":378,"x_min":0,"x_max":0,"o":""},"“":{"ha":275,"x_min":0,"x_max":191,"o":"m 14 1434 q 54 1394 17 1434 l 54 1250 q 14 1209 54 1246 q 0 1223 10 1209 l 0 1421 q 14 1434 0 1424 m 150 1434 q 191 1394 153 1434 l 191 1250 q 150 1209 191 1246 q 136 1223 146 1209 l 136 1421 q 150 1434 136 1424 z "},"”":{"ha":275,"x_min":0,"x_max":191,"o":"m 177 1434 q 191 1421 191 1424 l 191 1223 q 177 1209 180 1209 q 136 1250 136 1246 l 136 1394 q 177 1434 174 1434 m 41 1434 q 54 1421 54 1424 l 54 1223 q 41 1209 44 1209 q 0 1250 0 1246 l 0 1394 q 41 1434 37 1434 z "},"„":{"ha":617,"x_min":0,"x_max":0,"o":""},"†":{"ha":688,"x_min":0,"x_max":0,"o":""},"‡":{"ha":688,"x_min":0,"x_max":0,"o":""},"•":{"ha":694,"x_min":0,"x_max":0,"o":""},"…":{"ha":1389,"x_min":0,"x_max":0,"o":""},"‹":{"ha":428,"x_min":0,"x_max":0,"o":""},"›":{"ha":428,"x_min":0,"x_max":0,"o":""},"⁄":{"ha":232,"x_min":0,"x_max":0,"o":""},"₣":{"ha":688,"x_min":0,"x_max":0,"o":""},"₤":{"ha":688,"x_min":0,"x_max":0,"o":""},"₧":{"ha":1375,"x_min":0,"x_max":0,"o":""},"€":{"ha":688,"x_min":0,"x_max":0,"o":""},"№":{"ha":1540,"x_min":0,"x_max":0,"o":""},"™":{"ha":1015,"x_min":0,"x_max":0,"o":""},"∂":{"ha":688,"x_min":0,"x_max":0,"o":""},"∆":{"ha":733,"x_min":0,"x_max":0,"o":""},"∏":{"ha":1027,"x_min":0,"x_max":0,"o":""},"∑":{"ha":818,"x_min":0,"x_max":0,"o":""},"−":{"ha":445,"x_min":6,"x_max":435,"o":"m 60 661 l 380 661 q 435 606 384 661 l 435 604 q 380 549 435 600 l 60 549 q 6 604 57 549 l 6 606 q 60 661 6 610 z "},"√":{"ha":688,"x_min":0,"x_max":0,"o":""},"∞":{"ha":688,"x_min":0,"x_max":0,"o":""},"∫":{"ha":451,"x_min":0,"x_max":0,"o":""},"≈":{"ha":688,"x_min":0,"x_max":0,"o":""},"≤":{"ha":688,"x_min":0,"x_max":0,"o":""},"≥":{"ha":688,"x_min":0,"x_max":0,"o":""},"":{"ha":728,"x_min":0,"x_max":0,"o":""},"":{"ha":733,"x_min":0,"x_max":0,"o":""}}}
